%TF.GenerationSoftware,KiCad,Pcbnew,10.0.3*%
%TF.CreationDate,2026-05-30T05:49:55+05:30*%
%TF.ProjectId,sentinel_ring_v5_fpc,73656e74-696e-4656-9c5f-72696e675f76,rev?*%
%TF.SameCoordinates,Original*%
%TF.FileFunction,Copper,L1,Top*%
%TF.FilePolarity,Positive*%
%FSLAX46Y46*%
G04 Gerber Fmt 4.6, Leading zero omitted, Abs format (unit mm)*
G04 Created by KiCad (PCBNEW 10.0.3) date 2026-05-30 05:49:55*
%MOMM*%
%LPD*%
G01*
G04 APERTURE LIST*
G04 Aperture macros list*
%AMRoundRect*
0 Rectangle with rounded corners*
0 $1 Rounding radius*
0 $2 $3 $4 $5 $6 $7 $8 $9 X,Y pos of 4 corners*
0 Add a 4 corners polygon primitive as box body*
4,1,4,$2,$3,$4,$5,$6,$7,$8,$9,$2,$3,0*
0 Add four circle primitives for the rounded corners*
1,1,$1+$1,$2,$3*
1,1,$1+$1,$4,$5*
1,1,$1+$1,$6,$7*
1,1,$1+$1,$8,$9*
0 Add four rect primitives between the rounded corners*
20,1,$1+$1,$2,$3,$4,$5,0*
20,1,$1+$1,$4,$5,$6,$7,0*
20,1,$1+$1,$6,$7,$8,$9,0*
20,1,$1+$1,$8,$9,$2,$3,0*%
G04 Aperture macros list end*
%TA.AperFunction,SMDPad,CuDef*%
%ADD10RoundRect,0.225000X0.225000X0.250000X-0.225000X0.250000X-0.225000X-0.250000X0.225000X-0.250000X0*%
%TD*%
%TA.AperFunction,SMDPad,CuDef*%
%ADD11R,1.500000X1.000000*%
%TD*%
%TA.AperFunction,SMDPad,CuDef*%
%ADD12RoundRect,0.200000X0.200000X0.275000X-0.200000X0.275000X-0.200000X-0.275000X0.200000X-0.275000X0*%
%TD*%
%TA.AperFunction,SMDPad,CuDef*%
%ADD13RoundRect,0.200000X-0.275000X0.200000X-0.275000X-0.200000X0.275000X-0.200000X0.275000X0.200000X0*%
%TD*%
%TA.AperFunction,SMDPad,CuDef*%
%ADD14RoundRect,0.225000X-0.225000X-0.250000X0.225000X-0.250000X0.225000X0.250000X-0.225000X0.250000X0*%
%TD*%
%TA.AperFunction,SMDPad,CuDef*%
%ADD15RoundRect,0.200000X0.275000X-0.200000X0.275000X0.200000X-0.275000X0.200000X-0.275000X-0.200000X0*%
%TD*%
%TA.AperFunction,SMDPad,CuDef*%
%ADD16RoundRect,0.218750X-0.256250X0.218750X-0.256250X-0.218750X0.256250X-0.218750X0.256250X0.218750X0*%
%TD*%
%TA.AperFunction,SMDPad,CuDef*%
%ADD17RoundRect,0.225000X0.250000X-0.225000X0.250000X0.225000X-0.250000X0.225000X-0.250000X-0.225000X0*%
%TD*%
%TA.AperFunction,SMDPad,CuDef*%
%ADD18R,2.000000X1.500000*%
%TD*%
%TA.AperFunction,SMDPad,CuDef*%
%ADD19C,0.280000*%
%TD*%
%TA.AperFunction,SMDPad,CuDef*%
%ADD20C,0.250000*%
%TD*%
%TA.AperFunction,SMDPad,CuDef*%
%ADD21R,0.250000X0.675000*%
%TD*%
%TA.AperFunction,SMDPad,CuDef*%
%ADD22R,0.675000X0.250000*%
%TD*%
%TA.AperFunction,SMDPad,CuDef*%
%ADD23RoundRect,0.225000X-0.250000X0.225000X-0.250000X-0.225000X0.250000X-0.225000X0.250000X0.225000X0*%
%TD*%
%TA.AperFunction,SMDPad,CuDef*%
%ADD24R,1.000000X1.500000*%
%TD*%
%TA.AperFunction,SMDPad,CuDef*%
%ADD25RoundRect,0.218750X0.256250X-0.218750X0.256250X0.218750X-0.256250X0.218750X-0.256250X-0.218750X0*%
%TD*%
%TA.AperFunction,SMDPad,CuDef*%
%ADD26RoundRect,0.200000X-0.200000X-0.275000X0.200000X-0.275000X0.200000X0.275000X-0.200000X0.275000X0*%
%TD*%
%TA.AperFunction,ComponentPad*%
%ADD27C,1.400000*%
%TD*%
%TA.AperFunction,ComponentPad*%
%ADD28C,1.200000*%
%TD*%
%TA.AperFunction,ViaPad*%
%ADD29C,0.600000*%
%TD*%
%TA.AperFunction,Conductor*%
%ADD30C,0.100000*%
%TD*%
G04 APERTURE END LIST*
D10*
%TO.P,C5,1*%
%TO.N,VBAT*%
X-18166800Y-2241400D03*
%TO.P,C5,2*%
%TO.N,GND*%
X-19716800Y-2241400D03*
%TD*%
D11*
%TO.P,E1,1*%
%TO.N,ECG_P*%
X23107200Y133200D03*
%TO.P,E1,2*%
%TO.N,GND*%
X27107200Y133200D03*
%TD*%
%TO.P,E2,1*%
%TO.N,ECG_N*%
X23107200Y1685600D03*
%TO.P,E2,2*%
%TO.N,GND*%
X27107200Y1685600D03*
%TD*%
D12*
%TO.P,R3,1*%
%TO.N,VBAT*%
X-11975000Y-2800000D03*
%TO.P,R3,2*%
%TO.N,I2C_SCL*%
X-13625000Y-2800000D03*
%TD*%
D13*
%TO.P,R2,1*%
%TO.N,VBAT*%
X-11500000Y-2975000D03*
%TO.P,R2,2*%
%TO.N,I2C_SDA*%
X-11500000Y-4625000D03*
%TD*%
D14*
%TO.P,C3,1*%
%TO.N,VBAT*%
X-22037100Y-4273100D03*
%TO.P,C3,2*%
%TO.N,GND*%
X-20487100Y-4273100D03*
%TD*%
D15*
%TO.P,R7,1*%
%TO.N,REXT*%
X16917600Y-1554500D03*
%TO.P,R7,2*%
%TO.N,GND*%
X16917600Y95500D03*
%TD*%
D16*
%TO.P,D2,1*%
%TO.N,PWR_GD*%
X-31228400Y-3497600D03*
%TO.P,D2,2*%
%TO.N,/LED_R_A*%
X-31228400Y-5072600D03*
%TD*%
D17*
%TO.P,C8,1*%
%TO.N,PMID*%
X-24074600Y-996600D03*
%TO.P,C8,2*%
%TO.N,GND*%
X-24074600Y553400D03*
%TD*%
D18*
%TO.P,L1,1*%
%TO.N,COIL_P*%
X30985100Y-5206100D03*
%TO.P,L1,2*%
%TO.N,COIL_N*%
X24985100Y-5206100D03*
%TD*%
D19*
%TO.P,U5,A1*%
%TO.N,PMID*%
X-23382500Y-4031300D03*
%TO.P,U5,A2*%
X-23872500Y-4031300D03*
%TO.P,U5,A3*%
%TO.N,SW_NODE*%
X-24362500Y-4031300D03*
%TO.P,U5,A4*%
%TO.N,VBAT*%
X-24852500Y-4031300D03*
%TO.P,U5,B1*%
%TO.N,PWR_FLAG*%
X-23382500Y-3541300D03*
%TO.P,U5,B2*%
%TO.N,N/C*%
X-23872500Y-3541300D03*
%TO.P,U5,B3*%
%TO.N,VDD_REF*%
X-24362500Y-3541300D03*
%TO.P,U5,B4*%
%TO.N,I2C_SDA*%
X-24852500Y-3541300D03*
%TO.P,U5,C1*%
%TO.N,VBAT*%
X-23382500Y-3051300D03*
%TO.P,U5,C2*%
%TO.N,CHG_STAT*%
X-23872500Y-3051300D03*
%TO.P,U5,C3*%
%TO.N,PWR_GD*%
X-24362500Y-3051300D03*
%TO.P,U5,C4*%
%TO.N,I2C_SCL*%
X-24852500Y-3051300D03*
%TO.P,U5,D1*%
%TO.N,ISET*%
X-23382500Y-2561300D03*
%TO.P,U5,D2*%
%TO.N,N/C*%
X-23872500Y-2561300D03*
%TO.P,U5,D3*%
%TO.N,GND*%
X-24362500Y-2561300D03*
%TO.P,U5,D4*%
%TO.N,N/C*%
X-24852500Y-2561300D03*
%TD*%
D14*
%TO.P,C9,1*%
%TO.N,PMID*%
X-23584000Y-6304900D03*
%TO.P,C9,2*%
%TO.N,GND*%
X-22034000Y-6304900D03*
%TD*%
D20*
%TO.P,U4,1*%
%TO.N,I2C_SCL*%
X-15612100Y-1771600D03*
%TO.P,U4,2*%
%TO.N,I2C_SDA*%
X-16112100Y-1771600D03*
%TO.P,U4,3*%
%TO.N,VBAT*%
X-16612100Y-1771600D03*
%TO.P,U4,4*%
%TO.N,GND*%
X-16612100Y-2771600D03*
%TO.P,U4,5*%
%TO.N,INT_TEMP*%
X-16112100Y-2771600D03*
%TO.P,U4,6*%
%TO.N,GND*%
X-15612100Y-2771600D03*
%TD*%
D21*
%TO.P,U3,1*%
%TO.N,GND*%
X-13941600Y772000D03*
%TO.P,U3,2*%
X-13441600Y772000D03*
%TO.P,U3,3*%
%TO.N,VBAT*%
X-12941600Y772000D03*
%TO.P,U3,4*%
X-12441600Y772000D03*
D22*
%TO.P,U3,5*%
%TO.N,I2C_SDA*%
X-12179100Y1534500D03*
%TO.P,U3,6*%
%TO.N,I2C_SCL*%
X-12179100Y2034500D03*
%TO.P,U3,7*%
%TO.N,VBAT*%
X-12179100Y2534500D03*
D21*
%TO.P,U3,8*%
%TO.N,GND*%
X-12441600Y3297000D03*
%TO.P,U3,9*%
%TO.N,INT_IMU*%
X-12941600Y3297000D03*
%TO.P,U3,10*%
%TO.N,N/C*%
X-13441600Y3297000D03*
%TO.P,U3,11*%
%TO.N,GND*%
X-13941600Y3297000D03*
D22*
%TO.P,U3,12*%
X-14204100Y2534500D03*
%TO.P,U3,13*%
%TO.N,N/C*%
X-14204100Y2034500D03*
%TO.P,U3,14*%
%TO.N,GND*%
X-14204100Y1534500D03*
%TD*%
D14*
%TO.P,C4,1*%
%TO.N,VBAT*%
X-11275000Y1300000D03*
%TO.P,C4,2*%
%TO.N,GND*%
X-9725000Y1300000D03*
%TD*%
D23*
%TO.P,C11,1*%
%TO.N,VDD_REF*%
X-26394900Y-3510100D03*
%TO.P,C11,2*%
%TO.N,GND*%
X-26394900Y-5060100D03*
%TD*%
D15*
%TO.P,R1,1*%
%TO.N,VBAT*%
X-16855900Y-284700D03*
%TO.P,R1,2*%
X-16855900Y1365300D03*
%TD*%
D24*
%TO.P,E3,1*%
%TO.N,EDA_P*%
X18813200Y-1904400D03*
%TO.P,E3,2*%
%TO.N,GND*%
X18813200Y2095600D03*
%TD*%
D25*
%TO.P,L2,1*%
%TO.N,SW_NODE*%
X-29746500Y-1517000D03*
%TO.P,L2,2*%
%TO.N,VBAT*%
X-29746500Y58000D03*
%TD*%
D17*
%TO.P,C2,1*%
%TO.N,VBAT*%
X-22012100Y-2266400D03*
%TO.P,C2,2*%
%TO.N,GND*%
X-22012100Y-716400D03*
%TD*%
D26*
%TO.P,R9,1*%
%TO.N,BAT_MON*%
X-14352700Y-1225500D03*
%TO.P,R9,2*%
%TO.N,GND*%
X-12702700Y-1225500D03*
%TD*%
D27*
%TO.P,ANT1,1*%
%TO.N,RF_ANT*%
X-10614000Y-1059500D03*
%TO.P,ANT1,2*%
%TO.N,/GND*%
X-8074000Y-1059500D03*
%TD*%
D28*
%TO.P,J1,1*%
%TO.N,VBAT*%
X50500Y1770000D03*
%TO.P,J1,2*%
%TO.N,SWDIO*%
X-1219500Y1770000D03*
%TO.P,J1,3*%
%TO.N,SWDCLK*%
X-2489500Y1770000D03*
%TO.P,J1,4*%
%TO.N,GND*%
X-3759500Y1770000D03*
%TD*%
D29*
%TO.N,VBAT*%
X-14951300Y1289700D03*
X-17227600Y-2048300D03*
X-12658600Y-3456900D03*
X-20108000Y-3248300D03*
X-12601200Y-4844000D03*
X-30648800Y62400D03*
%TO.N,GND*%
X-22950200Y-952700D03*
X25496300Y1033900D03*
%TO.N,ECG_P*%
X22293800Y-768900D03*
%TO.N,ECG_N*%
X24335300Y1672300D03*
%TO.N,I2C_SCL*%
X-12934900Y1968800D03*
X-24783700Y-330000D03*
X-20811200Y317300D03*
X-10982800Y197600D03*
X16080100Y-2117000D03*
%TO.N,I2C_SDA*%
X-16353600Y-1268300D03*
X-26150500Y-2085200D03*
X16930600Y-2606600D03*
%TO.N,REXT*%
X20249300Y-3073100D03*
%TO.N,/LED_R_A*%
X-32347100Y-4983000D03*
%TO.N,PMID*%
X-23757500Y-4724800D03*
X-25119500Y-987700D03*
%TO.N,COIL_P*%
X29377700Y-5272500D03*
%TO.N,COIL_N*%
X28435500Y-5135300D03*
%TO.N,PWR_FLAG*%
X-21410600Y-5009800D03*
%TO.N,ISET*%
X-23371300Y-2019200D03*
%TO.N,INT_TEMP*%
X-18022600Y-806500D03*
X-18169300Y4385300D03*
X-13329200Y4384800D03*
%TO.N,INT_IMU*%
X-12144800Y4366100D03*
%TO.N,EDA_P*%
X19769900Y-985100D03*
%TO.N,BAT_MON*%
X-11895900Y-1408000D03*
%TO.N,INT_BIO*%
X13707400Y1533000D03*
X-15268700Y4722100D03*
%TD*%
%TO.N,VBAT*%
D30*
X-27175100Y-1708700D02*
X-24852500Y-4031300D01*
X-22037100Y-3811200D02*
X-21474200Y-3248300D01*
X-27175100Y-1435800D02*
X-27175100Y-1708700D01*
X-22012100Y-2266400D02*
X-22797000Y-3051300D01*
X-11317200Y1257800D02*
X-12441600Y1257800D01*
X-16855900Y-284700D02*
X-16855900Y-1527800D01*
X-16612100Y-1771600D02*
X-16112100Y-2271600D01*
X-27175100Y-1435800D02*
X-24374000Y1365300D01*
X-30648800Y62400D02*
X-29750900Y62400D01*
X-15612100Y-2271600D02*
X-13039700Y-4844000D01*
X-22797000Y-3051300D02*
X-22037100Y-3811200D01*
X-16612100Y-1771600D02*
X-17697000Y-1771600D01*
X-16855900Y-1527800D02*
X-16612100Y-1771600D01*
X-21474200Y-3248300D02*
X-20108000Y-3248300D01*
X-12179100Y2534500D02*
X-11689900Y2534500D01*
X-11275000Y1300000D02*
X-11317200Y1257800D01*
X-23382500Y-3051300D02*
X-22797000Y-3051300D01*
X-11689900Y2534500D02*
X-11689900Y2311300D01*
X-12941600Y772000D02*
X-12941600Y1261200D01*
X-16112100Y-2271600D02*
X-15612100Y-2271600D01*
X-29750900Y62400D02*
X-29746500Y58000D01*
X-16888800Y-2048300D02*
X-17227600Y-2048300D01*
X-11275000Y1300000D02*
X-10976800Y1598200D01*
X-12746000Y1261200D02*
X-12941600Y1261200D01*
X-12441600Y772000D02*
X-12441600Y1257800D01*
X-15026900Y1365300D02*
X-14951300Y1289700D01*
X-12742600Y1257800D02*
X-12746000Y1261200D01*
X-11800000Y-2975000D02*
X-11975000Y-2800000D01*
X-22037100Y-3811200D02*
X-22037100Y-4273100D01*
X-11689900Y2311300D02*
X-10976800Y1598200D01*
X-17697000Y-1771600D02*
X-18166800Y-2241400D01*
X-28668900Y58000D02*
X-27175100Y-1435800D01*
X-16612100Y-1771600D02*
X-16888800Y-2048300D01*
X-29746500Y58000D02*
X-28668900Y58000D01*
X-12658600Y-3456900D02*
X-12631900Y-3456900D01*
X-12441600Y1257800D02*
X-12742600Y1257800D01*
X-13039700Y-4844000D02*
X-12601200Y-4844000D01*
X-10045900Y2529100D02*
X-708600Y2529100D01*
X-12631900Y-3456900D02*
X-11975000Y-2800000D01*
X-16855900Y1365300D02*
X-15026900Y1365300D01*
X-10976800Y1598200D02*
X-10045900Y2529100D01*
X-11500000Y-2975000D02*
X-11800000Y-2975000D01*
X-24374000Y1365300D02*
X-16855900Y1365300D01*
X-708600Y2529100D02*
X50500Y1770000D01*
%TO.N,GND*%
X-20487100Y-4758000D02*
X-20487100Y-4273100D01*
X-19716800Y-2241400D02*
X-19089200Y-2869000D01*
X16917600Y644700D02*
X-2634200Y644700D01*
X-19089200Y-2875200D02*
X-20487100Y-4273100D01*
X-13941600Y3297000D02*
X-13941600Y2858700D01*
X-22034000Y-6304900D02*
X-20487100Y-4758000D01*
X-19089200Y-2875200D02*
X-18893700Y-3070700D01*
X-12691600Y2784500D02*
X-12441600Y3034500D01*
X-10375700Y649300D02*
X-11605500Y649300D01*
X-13941600Y843300D02*
X-13941600Y814300D01*
X-14204100Y1534500D02*
X-13714900Y1534500D01*
X-24362500Y-2365000D02*
X-22950200Y-952700D01*
X-13941600Y772000D02*
X-13941600Y793200D01*
X18813200Y1193900D02*
X17466800Y1193900D01*
X-19716800Y-2241400D02*
X-21241800Y-716400D01*
X-21241800Y-716400D02*
X-22012100Y-716400D01*
X-13441600Y772000D02*
X-13441600Y1261200D01*
X-22012100Y-244900D02*
X-22012100Y-716400D01*
X-22012100Y-716400D02*
X-22713900Y-716400D01*
X-16911200Y-3070700D02*
X-16612100Y-2771600D01*
X-13941600Y793200D02*
X-13941600Y814300D01*
X-13441600Y1261200D02*
X-13941600Y1261200D01*
X-13716400Y2534500D02*
X-13714900Y2534500D01*
X-12702700Y-447900D02*
X-12702700Y-1225500D01*
X-15890900Y-3050400D02*
X-16333300Y-3050400D01*
X-13714900Y1534500D02*
X-13714900Y1487900D01*
X-13714900Y2533000D02*
X-13714900Y1534500D01*
X-26394900Y-5060100D02*
X-24312100Y-7142900D01*
X-13714900Y1487900D02*
X-13941600Y1261200D01*
X-13714900Y2534500D02*
X-13714900Y2581100D01*
X-23281900Y553400D02*
X-24074600Y553400D01*
X-16333300Y-3050400D02*
X-16612100Y-2771600D01*
X27107200Y1033900D02*
X27107200Y133200D01*
X18813200Y2095600D02*
X18813200Y1644800D01*
X-13916800Y2784500D02*
X-12691600Y2784500D01*
X25496300Y1033900D02*
X27107200Y1033900D01*
X-13210900Y-447900D02*
X-13941600Y282800D01*
X-12441600Y3034500D02*
X-12441600Y3297000D01*
X-14204100Y2534500D02*
X-13765700Y2534500D01*
X-11605500Y649300D02*
X-12702700Y-447900D01*
X-2634200Y644700D02*
X-3759500Y1770000D01*
X-9725000Y1300000D02*
X-4229500Y1300000D01*
X-20974000Y793200D02*
X-22012100Y-244900D01*
X-15612100Y-2771600D02*
X-15890900Y-3050400D01*
X-4229500Y1300000D02*
X-3759500Y1770000D01*
X27107200Y1359800D02*
X27107200Y1033900D01*
X-18893700Y-3070700D02*
X-16911200Y-3070700D01*
X18813200Y1644800D02*
X18813200Y1193900D01*
X-24312100Y-7142900D02*
X-22872000Y-7142900D01*
X-22713900Y-716400D02*
X-22950200Y-952700D01*
X-13941600Y772000D02*
X-13941600Y282800D01*
X-13765700Y2534500D02*
X-13716400Y2534500D01*
X-22872000Y-7142900D02*
X-22034000Y-6304900D01*
X-13941600Y793200D02*
X-20974000Y793200D01*
X-13941600Y2809300D02*
X-13916800Y2784500D01*
X-13714900Y2581100D02*
X-13941600Y2807800D01*
X-13941600Y843300D02*
X-13941600Y1261200D01*
X-22012100Y-716400D02*
X-23281900Y553400D01*
X-13716400Y2534500D02*
X-13714900Y2533000D01*
X-12702700Y-447900D02*
X-13210900Y-447900D01*
X17466800Y1193900D02*
X16917600Y644700D01*
X-13941600Y2809300D02*
X-13941600Y2807800D01*
X-9725000Y1300000D02*
X-10375700Y649300D01*
X18813200Y1644800D02*
X19424100Y1033900D01*
X19424100Y1033900D02*
X25496300Y1033900D01*
X16917600Y95500D02*
X16917600Y644700D01*
X-13941600Y2858700D02*
X-13941600Y2809300D01*
X27107200Y1685600D02*
X27107200Y1359800D01*
X-19089200Y-2869000D02*
X-19089200Y-2875200D01*
X-24362500Y-2561300D02*
X-24362500Y-2365000D01*
%TO.N,ECG_P*%
X22544200Y-518500D02*
X23107200Y-518500D01*
X22293800Y-768900D02*
X22544200Y-518500D01*
X23107200Y133200D02*
X23107200Y-518500D01*
%TO.N,ECG_N*%
X24322000Y1685600D02*
X24335300Y1672300D01*
X23107200Y1685600D02*
X24322000Y1685600D01*
%TO.N,I2C_SCL*%
X-9717400Y-2117000D02*
X16080100Y-2117000D01*
X-15541700Y-1771600D02*
X-15612100Y-1771600D01*
X-25571300Y-2332500D02*
X-25571300Y-699900D01*
X-9717400Y-2117000D02*
X-9717400Y-717800D01*
X-12934900Y1968800D02*
X-12734000Y1968800D01*
X-12179100Y2034500D02*
X-12668300Y2034500D01*
X-13625000Y-2117000D02*
X-9717400Y-2117000D01*
X-24852500Y-3051300D02*
X-25571300Y-2332500D01*
X-25571300Y-699900D02*
X-25201400Y-330000D01*
X-25201400Y-330000D02*
X-24783700Y-330000D01*
X-15612100Y-1771600D02*
X-15612100Y-492200D01*
X-13625000Y-2117000D02*
X-13625000Y-2800000D01*
X-12734000Y1968800D02*
X-12668300Y2034500D01*
X-10632800Y197600D02*
X-10982800Y197600D01*
X-16421600Y317300D02*
X-20811200Y317300D01*
X-9717400Y-717800D02*
X-10632800Y197600D01*
X-15612100Y-492200D02*
X-16421600Y317300D01*
X-15196300Y-2117000D02*
X-15541700Y-1771600D01*
X-13625000Y-2117000D02*
X-15196300Y-2117000D01*
%TO.N,I2C_SDA*%
X-26150500Y-2243300D02*
X-26150500Y-2085200D01*
X-15813800Y-2069900D02*
X-16112100Y-1771600D01*
X-11500000Y-4625000D02*
X-11500000Y-4238100D01*
X-9868500Y-2606600D02*
X16930600Y-2606600D01*
X-11500000Y-4238100D02*
X-9868500Y-2606600D01*
X-24852500Y-3541300D02*
X-26150500Y-2243300D01*
X-16112100Y-1509800D02*
X-16353600Y-1268300D01*
X-13360400Y-4238100D02*
X-15528600Y-2069900D01*
X-11500000Y-4238100D02*
X-13360400Y-4238100D01*
X-16112100Y-1771600D02*
X-16112100Y-1509800D01*
X-15528600Y-2069900D02*
X-15813800Y-2069900D01*
%TO.N,REXT*%
X18436200Y-3073100D02*
X20249300Y-3073100D01*
X16917600Y-1554500D02*
X18436200Y-3073100D01*
%TO.N,/LED_R_A*%
X-32347100Y-4983000D02*
X-31318000Y-4983000D01*
X-31318000Y-4983000D02*
X-31228400Y-5072600D01*
%TO.N,PMID*%
X-25119500Y-987700D02*
X-24083500Y-987700D01*
X-23872500Y-4031300D02*
X-23382500Y-4031300D01*
X-23757500Y-4724800D02*
X-23872500Y-4609800D01*
X-23872500Y-4609800D02*
X-23872500Y-4031300D01*
X-24083500Y-987700D02*
X-24074600Y-996600D01*
X-23584000Y-6304900D02*
X-23757500Y-6131400D01*
X-23757500Y-6131400D02*
X-23757500Y-4724800D01*
%TO.N,COIL_P*%
X29767000Y-5272500D02*
X29833400Y-5206100D01*
X29377700Y-5272500D02*
X29767000Y-5272500D01*
X30985100Y-5206100D02*
X29833400Y-5206100D01*
%TO.N,COIL_N*%
X26207600Y-5135300D02*
X26136800Y-5206100D01*
X28435500Y-5135300D02*
X26207600Y-5135300D01*
X24985100Y-5206100D02*
X26136800Y-5206100D01*
%TO.N,SW_NODE*%
X-29746500Y-1517000D02*
X-26940500Y-4323000D01*
X-26940500Y-4323000D02*
X-24654200Y-4323000D01*
X-24654200Y-4323000D02*
X-24362500Y-4031300D01*
%TO.N,PWR_FLAG*%
X-22887100Y-4510500D02*
X-22887100Y-4036700D01*
X-22887100Y-4036700D02*
X-23382500Y-3541300D01*
X-21410600Y-5009800D02*
X-22387800Y-5009800D01*
X-22387800Y-5009800D02*
X-22887100Y-4510500D01*
%TO.N,ISET*%
X-23382500Y-2561300D02*
X-23382500Y-2030400D01*
X-23382500Y-2030400D02*
X-23371300Y-2019200D01*
%TO.N,INT_TEMP*%
X-18022600Y-806500D02*
X-18777700Y-1561600D01*
X-18565700Y-2869000D02*
X-17182600Y-2869000D01*
X-13444100Y4269900D02*
X-13329200Y4384800D01*
X-18169300Y4385300D02*
X-18053900Y4269900D01*
X-18777700Y-2657000D02*
X-18565700Y-2869000D01*
X-18777700Y-1561600D02*
X-18777700Y-2657000D01*
X-18053900Y4269900D02*
X-13444100Y4269900D01*
X-16400100Y-2483600D02*
X-16112100Y-2771600D01*
X-16797200Y-2483600D02*
X-16400100Y-2483600D01*
X-17182600Y-2869000D02*
X-16797200Y-2483600D01*
%TO.N,INT_IMU*%
X-12144800Y4366100D02*
X-12724700Y3786200D01*
X-12941600Y3297000D02*
X-12941600Y3786200D01*
X-12724700Y3786200D02*
X-12941600Y3786200D01*
%TO.N,EDA_P*%
X18813200Y-1002700D02*
X19752300Y-1002700D01*
X18813200Y-1904400D02*
X18813200Y-1002700D01*
X19752300Y-1002700D02*
X19769900Y-985100D01*
%TO.N,BAT_MON*%
X-13694800Y-1883400D02*
X-14352700Y-1225500D01*
X-11895900Y-1408000D02*
X-12371300Y-1883400D01*
X-12371300Y-1883400D02*
X-13694800Y-1883400D01*
%TO.N,INT_BIO*%
X-11564600Y4323300D02*
X-11564600Y4510500D01*
X-15099600Y4891200D02*
X-15268700Y4722100D01*
X12500800Y2739600D02*
X-9980900Y2739600D01*
X-9980900Y2739600D02*
X-11564600Y4323300D01*
X-11564600Y4510500D02*
X-11945300Y4891200D01*
X13707400Y1533000D02*
X12500800Y2739600D01*
X-11945300Y4891200D02*
X-15099600Y4891200D01*
%TD*%
M02*
