%TF.GenerationSoftware,KiCad,Pcbnew,10.0.3*%
%TF.CreationDate,2026-05-30T05:49:55+05:30*%
%TF.ProjectId,sentinel_ring_v5_fpc,73656e74-696e-4656-9c5f-72696e675f76,rev?*%
%TF.SameCoordinates,Original*%
%TF.FileFunction,Paste,Top*%
%TF.FilePolarity,Positive*%
%FSLAX46Y46*%
G04 Gerber Fmt 4.6, Leading zero omitted, Abs format (unit mm)*
G04 Created by KiCad (PCBNEW 10.0.3) date 2026-05-30 05:49:55*
%MOMM*%
%LPD*%
G01*
G04 APERTURE LIST*
G04 Aperture macros list*
%AMRoundRect*
0 Rectangle with rounded corners*
0 $1 Rounding radius*
0 $2 $3 $4 $5 $6 $7 $8 $9 X,Y pos of 4 corners*
0 Add a 4 corners polygon primitive as box body*
4,1,4,$2,$3,$4,$5,$6,$7,$8,$9,$2,$3,0*
0 Add four circle primitives for the rounded corners*
1,1,$1+$1,$2,$3*
1,1,$1+$1,$4,$5*
1,1,$1+$1,$6,$7*
1,1,$1+$1,$8,$9*
0 Add four rect primitives between the rounded corners*
20,1,$1+$1,$2,$3,$4,$5,0*
20,1,$1+$1,$4,$5,$6,$7,0*
20,1,$1+$1,$6,$7,$8,$9,0*
20,1,$1+$1,$8,$9,$2,$3,0*%
G04 Aperture macros list end*
%ADD10RoundRect,0.225000X0.225000X0.250000X-0.225000X0.250000X-0.225000X-0.250000X0.225000X-0.250000X0*%
%ADD11R,1.500000X1.000000*%
%ADD12RoundRect,0.200000X0.200000X0.275000X-0.200000X0.275000X-0.200000X-0.275000X0.200000X-0.275000X0*%
%ADD13RoundRect,0.200000X-0.275000X0.200000X-0.275000X-0.200000X0.275000X-0.200000X0.275000X0.200000X0*%
%ADD14RoundRect,0.225000X-0.225000X-0.250000X0.225000X-0.250000X0.225000X0.250000X-0.225000X0.250000X0*%
%ADD15RoundRect,0.200000X0.275000X-0.200000X0.275000X0.200000X-0.275000X0.200000X-0.275000X-0.200000X0*%
%ADD16RoundRect,0.218750X-0.256250X0.218750X-0.256250X-0.218750X0.256250X-0.218750X0.256250X0.218750X0*%
%ADD17RoundRect,0.225000X0.250000X-0.225000X0.250000X0.225000X-0.250000X0.225000X-0.250000X-0.225000X0*%
%ADD18R,2.000000X1.500000*%
%ADD19C,0.280000*%
%ADD20C,0.250000*%
%ADD21R,0.250000X0.675000*%
%ADD22R,0.675000X0.250000*%
%ADD23RoundRect,0.225000X-0.250000X0.225000X-0.250000X-0.225000X0.250000X-0.225000X0.250000X0.225000X0*%
%ADD24R,1.000000X1.500000*%
%ADD25RoundRect,0.218750X0.256250X-0.218750X0.256250X0.218750X-0.256250X0.218750X-0.256250X-0.218750X0*%
%ADD26RoundRect,0.200000X-0.200000X-0.275000X0.200000X-0.275000X0.200000X0.275000X-0.200000X0.275000X0*%
G04 APERTURE END LIST*
D10*
%TO.C,C5*%
X-18166800Y-2241400D03*
X-19716800Y-2241400D03*
%TD*%
D11*
%TO.C,E1*%
X23107200Y133200D03*
X27107200Y133200D03*
%TD*%
%TO.C,E2*%
X23107200Y1685600D03*
X27107200Y1685600D03*
%TD*%
D12*
%TO.C,R3*%
X-11975000Y-2800000D03*
X-13625000Y-2800000D03*
%TD*%
D13*
%TO.C,R2*%
X-11500000Y-2975000D03*
X-11500000Y-4625000D03*
%TD*%
D14*
%TO.C,C3*%
X-22037100Y-4273100D03*
X-20487100Y-4273100D03*
%TD*%
D15*
%TO.C,R7*%
X16917600Y-1554500D03*
X16917600Y95500D03*
%TD*%
D16*
%TO.C,D2*%
X-31228400Y-3497600D03*
X-31228400Y-5072600D03*
%TD*%
D17*
%TO.C,C8*%
X-24074600Y-996600D03*
X-24074600Y553400D03*
%TD*%
D18*
%TO.C,L1*%
X30985100Y-5206100D03*
X24985100Y-5206100D03*
%TD*%
D19*
%TO.C,U5*%
X-23382500Y-4031300D03*
X-23872500Y-4031300D03*
X-24362500Y-4031300D03*
X-24852500Y-4031300D03*
X-23382500Y-3541300D03*
X-23872500Y-3541300D03*
X-24362500Y-3541300D03*
X-24852500Y-3541300D03*
X-23382500Y-3051300D03*
X-23872500Y-3051300D03*
X-24362500Y-3051300D03*
X-24852500Y-3051300D03*
X-23382500Y-2561300D03*
X-23872500Y-2561300D03*
X-24362500Y-2561300D03*
X-24852500Y-2561300D03*
%TD*%
D14*
%TO.C,C9*%
X-23584000Y-6304900D03*
X-22034000Y-6304900D03*
%TD*%
D20*
%TO.C,U4*%
X-15612100Y-1771600D03*
X-16112100Y-1771600D03*
X-16612100Y-1771600D03*
X-16612100Y-2771600D03*
X-16112100Y-2771600D03*
X-15612100Y-2771600D03*
%TD*%
D21*
%TO.C,U3*%
X-13941600Y772000D03*
X-13441600Y772000D03*
X-12941600Y772000D03*
X-12441600Y772000D03*
D22*
X-12179100Y1534500D03*
X-12179100Y2034500D03*
X-12179100Y2534500D03*
D21*
X-12441600Y3297000D03*
X-12941600Y3297000D03*
X-13441600Y3297000D03*
X-13941600Y3297000D03*
D22*
X-14204100Y2534500D03*
X-14204100Y2034500D03*
X-14204100Y1534500D03*
%TD*%
D14*
%TO.C,C4*%
X-11275000Y1300000D03*
X-9725000Y1300000D03*
%TD*%
D23*
%TO.C,C11*%
X-26394900Y-3510100D03*
X-26394900Y-5060100D03*
%TD*%
D15*
%TO.C,R1*%
X-16855900Y-284700D03*
X-16855900Y1365300D03*
%TD*%
D24*
%TO.C,E3*%
X18813200Y-1904400D03*
X18813200Y2095600D03*
%TD*%
D25*
%TO.C,L2*%
X-29746500Y-1517000D03*
X-29746500Y58000D03*
%TD*%
D17*
%TO.C,C2*%
X-22012100Y-2266400D03*
X-22012100Y-716400D03*
%TD*%
D26*
%TO.C,R9*%
X-14352700Y-1225500D03*
X-12702700Y-1225500D03*
%TD*%
M02*
