M48
; DRILL file KiCad 10.0.3 date 2026-05-30T05:49:56
; FORMAT={-:-/ absolute / metric / decimal}
; #@! TF.CreationDate,2026-05-30T05:49:56+05:30
; #@! TF.GenerationSoftware,Kicad,Pcbnew,10.0.3
; #@! TF.FileFunction,MixedPlating,1,2
FMAT,2
METRIC
; #@! TA.AperFunction,Plated,PTH,ViaDrill
T1C0.300
; #@! TA.AperFunction,Plated,PTH,ComponentDrill
T2C0.600
; #@! TA.AperFunction,Plated,PTH,ComponentDrill
T3C0.800
%
G90
G05
T1
X-32.347Y-4.983
X-30.649Y0.062
X-26.15Y-2.085
X-25.119Y-0.988
X-24.784Y-0.33
X-23.758Y-4.725
X-23.371Y-2.019
X-22.95Y-0.953
X-21.411Y-5.01
X-20.811Y0.317
X-20.108Y-3.248
X-18.169Y4.385
X-18.023Y-0.806
X-17.228Y-2.048
X-16.354Y-1.268
X-15.269Y4.722
X-14.951Y1.29
X-13.329Y4.385
X-12.935Y1.969
X-12.659Y-3.457
X-12.601Y-4.844
X-12.145Y4.366
X-11.896Y-1.408
X-10.983Y0.198
X13.707Y1.533
X16.08Y-2.117
X16.931Y-2.607
X19.77Y-0.985
X20.249Y-3.073
X22.294Y-0.769
X24.335Y1.672
X25.496Y1.034
X28.435Y-5.135
X29.378Y-5.272
T2
X-3.759Y1.77
X-2.49Y1.77
X-1.22Y1.77
X0.05Y1.77
T3
X-10.614Y-1.059
X-8.074Y-1.059
M30
