%TF.GenerationSoftware,KiCad,Pcbnew,10.0.3*%
%TF.CreationDate,2026-05-30T05:49:55+05:30*%
%TF.ProjectId,sentinel_ring_v5_fpc,73656e74-696e-4656-9c5f-72696e675f76,rev?*%
%TF.SameCoordinates,Original*%
%TF.FileFunction,Legend,Bot*%
%TF.FilePolarity,Positive*%
%FSLAX46Y46*%
G04 Gerber Fmt 4.6, Leading zero omitted, Abs format (unit mm)*
G04 Created by KiCad (PCBNEW 10.0.3) date 2026-05-30 05:49:55*
%MOMM*%
%LPD*%
G01*
G04 APERTURE LIST*
%ADD10C,0.150000*%
%ADD11C,0.158750*%
%ADD12C,0.120000*%
G04 APERTURE END LIST*
D10*
X-7694952Y-3228604D02*
X-8171142Y-3228604D01*
X-7599714Y-3514319D02*
X-7933047Y-2514319D01*
X-7933047Y-2514319D02*
X-8266380Y-3514319D01*
X-8599714Y-3514319D02*
X-8599714Y-2514319D01*
X-8599714Y-2514319D02*
X-9171142Y-3514319D01*
X-9171142Y-3514319D02*
X-9171142Y-2514319D01*
X-9504476Y-2514319D02*
X-10075904Y-2514319D01*
X-9790190Y-3514319D02*
X-9790190Y-2514319D01*
X-10933047Y-3514319D02*
X-10361619Y-3514319D01*
X-10647333Y-3514319D02*
X-10647333Y-2514319D01*
X-10647333Y-2514319D02*
X-10552095Y-2657176D01*
X-10552095Y-2657176D02*
X-10456857Y-2752414D01*
X-10456857Y-2752414D02*
X-10361619Y-2800033D01*
D11*
X-640228Y2193332D02*
X266914Y2193332D01*
X266914Y2193332D02*
X448342Y2253809D01*
X448342Y2253809D02*
X569295Y2374761D01*
X569295Y2374761D02*
X629771Y2556190D01*
X629771Y2556190D02*
X629771Y2677142D01*
X629771Y923332D02*
X629771Y1649047D01*
X629771Y1286190D02*
X-640228Y1286190D01*
X-640228Y1286190D02*
X-458800Y1407142D01*
X-458800Y1407142D02*
X-337847Y1528094D01*
X-337847Y1528094D02*
X-277371Y1649047D01*
D10*
X-25478233Y-8189719D02*
X-25144900Y-7713528D01*
X-24906805Y-8189719D02*
X-24906805Y-7189719D01*
X-24906805Y-7189719D02*
X-25287757Y-7189719D01*
X-25287757Y-7189719D02*
X-25382995Y-7237338D01*
X-25382995Y-7237338D02*
X-25430614Y-7284957D01*
X-25430614Y-7284957D02*
X-25478233Y-7380195D01*
X-25478233Y-7380195D02*
X-25478233Y-7523052D01*
X-25478233Y-7523052D02*
X-25430614Y-7618290D01*
X-25430614Y-7618290D02*
X-25382995Y-7665909D01*
X-25382995Y-7665909D02*
X-25287757Y-7713528D01*
X-25287757Y-7713528D02*
X-24906805Y-7713528D01*
X-26335376Y-7523052D02*
X-26335376Y-8189719D01*
X-26097281Y-7142100D02*
X-25859186Y-7856385D01*
X-25859186Y-7856385D02*
X-26478233Y-7856385D01*
X-19854071Y2652390D02*
X-19377880Y2652390D01*
X-20377880Y2985723D02*
X-19854071Y2652390D01*
X-19854071Y2652390D02*
X-20377880Y2319057D01*
X-19377880Y1461914D02*
X-19377880Y2033342D01*
X-19377880Y1747628D02*
X-20377880Y1747628D01*
X-20377880Y1747628D02*
X-20235023Y1842866D01*
X-20235023Y1842866D02*
X-20139785Y1938104D01*
X-20139785Y1938104D02*
X-20092166Y2033342D01*
X-23701880Y-3547005D02*
X-24701880Y-3547005D01*
X-24701880Y-3547005D02*
X-24701880Y-3785100D01*
X-24701880Y-3785100D02*
X-24654261Y-3927957D01*
X-24654261Y-3927957D02*
X-24559023Y-4023195D01*
X-24559023Y-4023195D02*
X-24463785Y-4070814D01*
X-24463785Y-4070814D02*
X-24273309Y-4118433D01*
X-24273309Y-4118433D02*
X-24130452Y-4118433D01*
X-24130452Y-4118433D02*
X-23939976Y-4070814D01*
X-23939976Y-4070814D02*
X-23844738Y-4023195D01*
X-23844738Y-4023195D02*
X-23749500Y-3927957D01*
X-23749500Y-3927957D02*
X-23701880Y-3785100D01*
X-23701880Y-3785100D02*
X-23701880Y-3547005D01*
X-23701880Y-5070814D02*
X-23701880Y-4499386D01*
X-23701880Y-4785100D02*
X-24701880Y-4785100D01*
X-24701880Y-4785100D02*
X-24559023Y-4689862D01*
X-24559023Y-4689862D02*
X-24463785Y-4594624D01*
X-24463785Y-4594624D02*
X-24416166Y-4499386D01*
X-4337633Y-3110319D02*
X-4004300Y-2634128D01*
X-3766205Y-3110319D02*
X-3766205Y-2110319D01*
X-3766205Y-2110319D02*
X-4147157Y-2110319D01*
X-4147157Y-2110319D02*
X-4242395Y-2157938D01*
X-4242395Y-2157938D02*
X-4290014Y-2205557D01*
X-4290014Y-2205557D02*
X-4337633Y-2300795D01*
X-4337633Y-2300795D02*
X-4337633Y-2443652D01*
X-4337633Y-2443652D02*
X-4290014Y-2538890D01*
X-4290014Y-2538890D02*
X-4242395Y-2586509D01*
X-4242395Y-2586509D02*
X-4147157Y-2634128D01*
X-4147157Y-2634128D02*
X-3766205Y-2634128D01*
X-4909062Y-2538890D02*
X-4813824Y-2491271D01*
X-4813824Y-2491271D02*
X-4766205Y-2443652D01*
X-4766205Y-2443652D02*
X-4718586Y-2348414D01*
X-4718586Y-2348414D02*
X-4718586Y-2300795D01*
X-4718586Y-2300795D02*
X-4766205Y-2205557D01*
X-4766205Y-2205557D02*
X-4813824Y-2157938D01*
X-4813824Y-2157938D02*
X-4909062Y-2110319D01*
X-4909062Y-2110319D02*
X-5099538Y-2110319D01*
X-5099538Y-2110319D02*
X-5194776Y-2157938D01*
X-5194776Y-2157938D02*
X-5242395Y-2205557D01*
X-5242395Y-2205557D02*
X-5290014Y-2300795D01*
X-5290014Y-2300795D02*
X-5290014Y-2348414D01*
X-5290014Y-2348414D02*
X-5242395Y-2443652D01*
X-5242395Y-2443652D02*
X-5194776Y-2491271D01*
X-5194776Y-2491271D02*
X-5099538Y-2538890D01*
X-5099538Y-2538890D02*
X-4909062Y-2538890D01*
X-4909062Y-2538890D02*
X-4813824Y-2586509D01*
X-4813824Y-2586509D02*
X-4766205Y-2634128D01*
X-4766205Y-2634128D02*
X-4718586Y-2729366D01*
X-4718586Y-2729366D02*
X-4718586Y-2919842D01*
X-4718586Y-2919842D02*
X-4766205Y-3015080D01*
X-4766205Y-3015080D02*
X-4813824Y-3062700D01*
X-4813824Y-3062700D02*
X-4909062Y-3110319D01*
X-4909062Y-3110319D02*
X-5099538Y-3110319D01*
X-5099538Y-3110319D02*
X-5194776Y-3062700D01*
X-5194776Y-3062700D02*
X-5242395Y-3015080D01*
X-5242395Y-3015080D02*
X-5290014Y-2919842D01*
X-5290014Y-2919842D02*
X-5290014Y-2729366D01*
X-5290014Y-2729366D02*
X-5242395Y-2634128D01*
X-5242395Y-2634128D02*
X-5194776Y-2586509D01*
X-5194776Y-2586509D02*
X-5099538Y-2538890D01*
X-14316919Y-594542D02*
X-14269300Y-546923D01*
X-14269300Y-546923D02*
X-14221680Y-404066D01*
X-14221680Y-404066D02*
X-14221680Y-308828D01*
X-14221680Y-308828D02*
X-14269300Y-165971D01*
X-14269300Y-165971D02*
X-14364538Y-70733D01*
X-14364538Y-70733D02*
X-14459776Y-23114D01*
X-14459776Y-23114D02*
X-14650252Y24504D01*
X-14650252Y24504D02*
X-14793109Y24504D01*
X-14793109Y24504D02*
X-14983585Y-23114D01*
X-14983585Y-23114D02*
X-15078823Y-70733D01*
X-15078823Y-70733D02*
X-15174061Y-165971D01*
X-15174061Y-165971D02*
X-15221680Y-308828D01*
X-15221680Y-308828D02*
X-15221680Y-404066D01*
X-15221680Y-404066D02*
X-15174061Y-546923D01*
X-15174061Y-546923D02*
X-15126442Y-594542D01*
X-14221680Y-1546923D02*
X-14221680Y-975495D01*
X-14221680Y-1261209D02*
X-15221680Y-1261209D01*
X-15221680Y-1261209D02*
X-15078823Y-1165971D01*
X-15078823Y-1165971D02*
X-14983585Y-1070733D01*
X-14983585Y-1070733D02*
X-14935966Y-975495D01*
X-15221680Y-2165971D02*
X-15221680Y-2261209D01*
X-15221680Y-2261209D02*
X-15174061Y-2356447D01*
X-15174061Y-2356447D02*
X-15126442Y-2404066D01*
X-15126442Y-2404066D02*
X-15031204Y-2451685D01*
X-15031204Y-2451685D02*
X-14840728Y-2499304D01*
X-14840728Y-2499304D02*
X-14602633Y-2499304D01*
X-14602633Y-2499304D02*
X-14412157Y-2451685D01*
X-14412157Y-2451685D02*
X-14316919Y-2404066D01*
X-14316919Y-2404066D02*
X-14269300Y-2356447D01*
X-14269300Y-2356447D02*
X-14221680Y-2261209D01*
X-14221680Y-2261209D02*
X-14221680Y-2165971D01*
X-14221680Y-2165971D02*
X-14269300Y-2070733D01*
X-14269300Y-2070733D02*
X-14316919Y-2023114D01*
X-14316919Y-2023114D02*
X-14412157Y-1975495D01*
X-14412157Y-1975495D02*
X-14602633Y-1927876D01*
X-14602633Y-1927876D02*
X-14840728Y-1927876D01*
X-14840728Y-1927876D02*
X-15031204Y-1975495D01*
X-15031204Y-1975495D02*
X-15126442Y-2023114D01*
X-15126442Y-2023114D02*
X-15174061Y-2070733D01*
X-15174061Y-2070733D02*
X-15221680Y-2165971D01*
X-16379419Y-1832633D02*
X-16331800Y-1785014D01*
X-16331800Y-1785014D02*
X-16284180Y-1642157D01*
X-16284180Y-1642157D02*
X-16284180Y-1546919D01*
X-16284180Y-1546919D02*
X-16331800Y-1404062D01*
X-16331800Y-1404062D02*
X-16427038Y-1308824D01*
X-16427038Y-1308824D02*
X-16522276Y-1261205D01*
X-16522276Y-1261205D02*
X-16712752Y-1213586D01*
X-16712752Y-1213586D02*
X-16855609Y-1213586D01*
X-16855609Y-1213586D02*
X-17046085Y-1261205D01*
X-17046085Y-1261205D02*
X-17141323Y-1308824D01*
X-17141323Y-1308824D02*
X-17236561Y-1404062D01*
X-17236561Y-1404062D02*
X-17284180Y-1546919D01*
X-17284180Y-1546919D02*
X-17284180Y-1642157D01*
X-17284180Y-1642157D02*
X-17236561Y-1785014D01*
X-17236561Y-1785014D02*
X-17188942Y-1832633D01*
X-17284180Y-2689776D02*
X-17284180Y-2499300D01*
X-17284180Y-2499300D02*
X-17236561Y-2404062D01*
X-17236561Y-2404062D02*
X-17188942Y-2356443D01*
X-17188942Y-2356443D02*
X-17046085Y-2261205D01*
X-17046085Y-2261205D02*
X-16855609Y-2213586D01*
X-16855609Y-2213586D02*
X-16474657Y-2213586D01*
X-16474657Y-2213586D02*
X-16379419Y-2261205D01*
X-16379419Y-2261205D02*
X-16331800Y-2308824D01*
X-16331800Y-2308824D02*
X-16284180Y-2404062D01*
X-16284180Y-2404062D02*
X-16284180Y-2594538D01*
X-16284180Y-2594538D02*
X-16331800Y-2689776D01*
X-16331800Y-2689776D02*
X-16379419Y-2737395D01*
X-16379419Y-2737395D02*
X-16474657Y-2785014D01*
X-16474657Y-2785014D02*
X-16712752Y-2785014D01*
X-16712752Y-2785014D02*
X-16807990Y-2737395D01*
X-16807990Y-2737395D02*
X-16855609Y-2689776D01*
X-16855609Y-2689776D02*
X-16903228Y-2594538D01*
X-16903228Y-2594538D02*
X-16903228Y-2404062D01*
X-16903228Y-2404062D02*
X-16855609Y-2308824D01*
X-16855609Y-2308824D02*
X-16807990Y-2261205D01*
X-16807990Y-2261205D02*
X-16712752Y-2213586D01*
X16287366Y2384619D02*
X16334985Y2337000D01*
X16334985Y2337000D02*
X16477842Y2289380D01*
X16477842Y2289380D02*
X16573080Y2289380D01*
X16573080Y2289380D02*
X16715937Y2337000D01*
X16715937Y2337000D02*
X16811175Y2432238D01*
X16811175Y2432238D02*
X16858794Y2527476D01*
X16858794Y2527476D02*
X16906413Y2717952D01*
X16906413Y2717952D02*
X16906413Y2860809D01*
X16906413Y2860809D02*
X16858794Y3051285D01*
X16858794Y3051285D02*
X16811175Y3146523D01*
X16811175Y3146523D02*
X16715937Y3241761D01*
X16715937Y3241761D02*
X16573080Y3289380D01*
X16573080Y3289380D02*
X16477842Y3289380D01*
X16477842Y3289380D02*
X16334985Y3241761D01*
X16334985Y3241761D02*
X16287366Y3194142D01*
X15334985Y2289380D02*
X15906413Y2289380D01*
X15620699Y2289380D02*
X15620699Y3289380D01*
X15620699Y3289380D02*
X15715937Y3146523D01*
X15715937Y3146523D02*
X15811175Y3051285D01*
X15811175Y3051285D02*
X15906413Y3003666D01*
X-32526380Y-816833D02*
X-33002571Y-483500D01*
X-32526380Y-245405D02*
X-33526380Y-245405D01*
X-33526380Y-245405D02*
X-33526380Y-626357D01*
X-33526380Y-626357D02*
X-33478761Y-721595D01*
X-33478761Y-721595D02*
X-33431142Y-769214D01*
X-33431142Y-769214D02*
X-33335904Y-816833D01*
X-33335904Y-816833D02*
X-33193047Y-816833D01*
X-33193047Y-816833D02*
X-33097809Y-769214D01*
X-33097809Y-769214D02*
X-33050190Y-721595D01*
X-33050190Y-721595D02*
X-33002571Y-626357D01*
X-33002571Y-626357D02*
X-33002571Y-245405D01*
X-33526380Y-1673976D02*
X-33526380Y-1483500D01*
X-33526380Y-1483500D02*
X-33478761Y-1388262D01*
X-33478761Y-1388262D02*
X-33431142Y-1340643D01*
X-33431142Y-1340643D02*
X-33288285Y-1245405D01*
X-33288285Y-1245405D02*
X-33097809Y-1197786D01*
X-33097809Y-1197786D02*
X-32716857Y-1197786D01*
X-32716857Y-1197786D02*
X-32621619Y-1245405D01*
X-32621619Y-1245405D02*
X-32574000Y-1293024D01*
X-32574000Y-1293024D02*
X-32526380Y-1388262D01*
X-32526380Y-1388262D02*
X-32526380Y-1578738D01*
X-32526380Y-1578738D02*
X-32574000Y-1673976D01*
X-32574000Y-1673976D02*
X-32621619Y-1721595D01*
X-32621619Y-1721595D02*
X-32716857Y-1769214D01*
X-32716857Y-1769214D02*
X-32954952Y-1769214D01*
X-32954952Y-1769214D02*
X-33050190Y-1721595D01*
X-33050190Y-1721595D02*
X-33097809Y-1673976D01*
X-33097809Y-1673976D02*
X-33145428Y-1578738D01*
X-33145428Y-1578738D02*
X-33145428Y-1388262D01*
X-33145428Y-1388262D02*
X-33097809Y-1293024D01*
X-33097809Y-1293024D02*
X-33050190Y-1245405D01*
X-33050190Y-1245405D02*
X-32954952Y-1197786D01*
X-13618833Y3588019D02*
X-13571214Y3540400D01*
X-13571214Y3540400D02*
X-13428357Y3492780D01*
X-13428357Y3492780D02*
X-13333119Y3492780D01*
X-13333119Y3492780D02*
X-13190262Y3540400D01*
X-13190262Y3540400D02*
X-13095024Y3635638D01*
X-13095024Y3635638D02*
X-13047405Y3730876D01*
X-13047405Y3730876D02*
X-12999786Y3921352D01*
X-12999786Y3921352D02*
X-12999786Y4064209D01*
X-12999786Y4064209D02*
X-13047405Y4254685D01*
X-13047405Y4254685D02*
X-13095024Y4349923D01*
X-13095024Y4349923D02*
X-13190262Y4445161D01*
X-13190262Y4445161D02*
X-13333119Y4492780D01*
X-13333119Y4492780D02*
X-13428357Y4492780D01*
X-13428357Y4492780D02*
X-13571214Y4445161D01*
X-13571214Y4445161D02*
X-13618833Y4397542D01*
X-13952167Y4492780D02*
X-14618833Y4492780D01*
X-14618833Y4492780D02*
X-14190262Y3492780D01*
X27581919Y1234094D02*
X26581919Y1234094D01*
X26581919Y1234094D02*
X26581919Y995999D01*
X26581919Y995999D02*
X26629538Y853142D01*
X26629538Y853142D02*
X26724776Y757904D01*
X26724776Y757904D02*
X26820014Y710285D01*
X26820014Y710285D02*
X27010490Y662666D01*
X27010490Y662666D02*
X27153347Y662666D01*
X27153347Y662666D02*
X27343823Y710285D01*
X27343823Y710285D02*
X27439061Y757904D01*
X27439061Y757904D02*
X27534300Y853142D01*
X27534300Y853142D02*
X27581919Y995999D01*
X27581919Y995999D02*
X27581919Y1234094D01*
X26581919Y-194476D02*
X26581919Y-4000D01*
X26581919Y-4000D02*
X26629538Y91237D01*
X26629538Y91237D02*
X26677157Y138856D01*
X26677157Y138856D02*
X26820014Y234094D01*
X26820014Y234094D02*
X27010490Y281713D01*
X27010490Y281713D02*
X27391442Y281713D01*
X27391442Y281713D02*
X27486680Y234094D01*
X27486680Y234094D02*
X27534300Y186475D01*
X27534300Y186475D02*
X27581919Y91237D01*
X27581919Y91237D02*
X27581919Y-99238D01*
X27581919Y-99238D02*
X27534300Y-194476D01*
X27534300Y-194476D02*
X27486680Y-242095D01*
X27486680Y-242095D02*
X27391442Y-289714D01*
X27391442Y-289714D02*
X27153347Y-289714D01*
X27153347Y-289714D02*
X27058109Y-242095D01*
X27058109Y-242095D02*
X27010490Y-194476D01*
X27010490Y-194476D02*
X26962871Y-99238D01*
X26962871Y-99238D02*
X26962871Y91237D01*
X26962871Y91237D02*
X27010490Y186475D01*
X27010490Y186475D02*
X27058109Y234094D01*
X27058109Y234094D02*
X27153347Y281713D01*
X28955519Y1234094D02*
X27955519Y1234094D01*
X27955519Y1234094D02*
X27955519Y995999D01*
X27955519Y995999D02*
X28003138Y853142D01*
X28003138Y853142D02*
X28098376Y757904D01*
X28098376Y757904D02*
X28193614Y710285D01*
X28193614Y710285D02*
X28384090Y662666D01*
X28384090Y662666D02*
X28526947Y662666D01*
X28526947Y662666D02*
X28717423Y710285D01*
X28717423Y710285D02*
X28812661Y757904D01*
X28812661Y757904D02*
X28907900Y853142D01*
X28907900Y853142D02*
X28955519Y995999D01*
X28955519Y995999D02*
X28955519Y1234094D01*
X27955519Y-242095D02*
X27955519Y234094D01*
X27955519Y234094D02*
X28431709Y281713D01*
X28431709Y281713D02*
X28384090Y234094D01*
X28384090Y234094D02*
X28336471Y138856D01*
X28336471Y138856D02*
X28336471Y-99238D01*
X28336471Y-99238D02*
X28384090Y-194476D01*
X28384090Y-194476D02*
X28431709Y-242095D01*
X28431709Y-242095D02*
X28526947Y-289714D01*
X28526947Y-289714D02*
X28765042Y-289714D01*
X28765042Y-289714D02*
X28860280Y-242095D01*
X28860280Y-242095D02*
X28907900Y-194476D01*
X28907900Y-194476D02*
X28955519Y-99238D01*
X28955519Y-99238D02*
X28955519Y138856D01*
X28955519Y138856D02*
X28907900Y234094D01*
X28907900Y234094D02*
X28860280Y281713D01*
X-12450595Y1713580D02*
X-12450595Y904057D01*
X-12450595Y904057D02*
X-12498214Y808819D01*
X-12498214Y808819D02*
X-12545833Y761200D01*
X-12545833Y761200D02*
X-12641071Y713580D01*
X-12641071Y713580D02*
X-12831547Y713580D01*
X-12831547Y713580D02*
X-12926785Y761200D01*
X-12926785Y761200D02*
X-12974404Y808819D01*
X-12974404Y808819D02*
X-13022023Y904057D01*
X-13022023Y904057D02*
X-13022023Y1713580D01*
X-14022023Y713580D02*
X-13450595Y713580D01*
X-13736309Y713580D02*
X-13736309Y1713580D01*
X-13736309Y1713580D02*
X-13641071Y1570723D01*
X-13641071Y1570723D02*
X-13545833Y1475485D01*
X-13545833Y1475485D02*
X-13450595Y1427866D01*
X29986819Y-3591305D02*
X28986819Y-3591305D01*
X28986819Y-3591305D02*
X28986819Y-3829400D01*
X28986819Y-3829400D02*
X29034438Y-3972257D01*
X29034438Y-3972257D02*
X29129676Y-4067495D01*
X29129676Y-4067495D02*
X29224914Y-4115114D01*
X29224914Y-4115114D02*
X29415390Y-4162733D01*
X29415390Y-4162733D02*
X29558247Y-4162733D01*
X29558247Y-4162733D02*
X29748723Y-4115114D01*
X29748723Y-4115114D02*
X29843961Y-4067495D01*
X29843961Y-4067495D02*
X29939200Y-3972257D01*
X29939200Y-3972257D02*
X29986819Y-3829400D01*
X29986819Y-3829400D02*
X29986819Y-3591305D01*
X28986819Y-4496067D02*
X28986819Y-5115114D01*
X28986819Y-5115114D02*
X29367771Y-4781781D01*
X29367771Y-4781781D02*
X29367771Y-4924638D01*
X29367771Y-4924638D02*
X29415390Y-5019876D01*
X29415390Y-5019876D02*
X29463009Y-5067495D01*
X29463009Y-5067495D02*
X29558247Y-5115114D01*
X29558247Y-5115114D02*
X29796342Y-5115114D01*
X29796342Y-5115114D02*
X29891580Y-5067495D01*
X29891580Y-5067495D02*
X29939200Y-5019876D01*
X29939200Y-5019876D02*
X29986819Y-4924638D01*
X29986819Y-4924638D02*
X29986819Y-4638924D01*
X29986819Y-4638924D02*
X29939200Y-4543686D01*
X29939200Y-4543686D02*
X29891580Y-4496067D01*
X-9557142Y4210419D02*
X-9509523Y4162800D01*
X-9509523Y4162800D02*
X-9366666Y4115180D01*
X-9366666Y4115180D02*
X-9271428Y4115180D01*
X-9271428Y4115180D02*
X-9128571Y4162800D01*
X-9128571Y4162800D02*
X-9033333Y4258038D01*
X-9033333Y4258038D02*
X-8985714Y4353276D01*
X-8985714Y4353276D02*
X-8938095Y4543752D01*
X-8938095Y4543752D02*
X-8938095Y4686609D01*
X-8938095Y4686609D02*
X-8985714Y4877085D01*
X-8985714Y4877085D02*
X-9033333Y4972323D01*
X-9033333Y4972323D02*
X-9128571Y5067561D01*
X-9128571Y5067561D02*
X-9271428Y5115180D01*
X-9271428Y5115180D02*
X-9366666Y5115180D01*
X-9366666Y5115180D02*
X-9509523Y5067561D01*
X-9509523Y5067561D02*
X-9557142Y5019942D01*
X-10509523Y4115180D02*
X-9938095Y4115180D01*
X-10223809Y4115180D02*
X-10223809Y5115180D01*
X-10223809Y5115180D02*
X-10128571Y4972323D01*
X-10128571Y4972323D02*
X-10033333Y4877085D01*
X-10033333Y4877085D02*
X-9938095Y4829466D01*
X-10890476Y5019942D02*
X-10938095Y5067561D01*
X-10938095Y5067561D02*
X-11033333Y5115180D01*
X-11033333Y5115180D02*
X-11271428Y5115180D01*
X-11271428Y5115180D02*
X-11366666Y5067561D01*
X-11366666Y5067561D02*
X-11414285Y5019942D01*
X-11414285Y5019942D02*
X-11461904Y4924704D01*
X-11461904Y4924704D02*
X-11461904Y4829466D01*
X-11461904Y4829466D02*
X-11414285Y4686609D01*
X-11414285Y4686609D02*
X-10842857Y4115180D01*
X-10842857Y4115180D02*
X-11461904Y4115180D01*
X-27516538Y-2339109D02*
X-27659395Y-2386728D01*
X-27659395Y-2386728D02*
X-27707014Y-2434347D01*
X-27707014Y-2434347D02*
X-27754633Y-2529585D01*
X-27754633Y-2529585D02*
X-27754633Y-2672442D01*
X-27754633Y-2672442D02*
X-27707014Y-2767680D01*
X-27707014Y-2767680D02*
X-27659395Y-2815300D01*
X-27659395Y-2815300D02*
X-27564157Y-2862919D01*
X-27564157Y-2862919D02*
X-27183205Y-2862919D01*
X-27183205Y-2862919D02*
X-27183205Y-1862919D01*
X-27183205Y-1862919D02*
X-27516538Y-1862919D01*
X-27516538Y-1862919D02*
X-27611776Y-1910538D01*
X-27611776Y-1910538D02*
X-27659395Y-1958157D01*
X-27659395Y-1958157D02*
X-27707014Y-2053395D01*
X-27707014Y-2053395D02*
X-27707014Y-2148633D01*
X-27707014Y-2148633D02*
X-27659395Y-2243871D01*
X-27659395Y-2243871D02*
X-27611776Y-2291490D01*
X-27611776Y-2291490D02*
X-27516538Y-2339109D01*
X-27516538Y-2339109D02*
X-27183205Y-2339109D01*
X-28707014Y-2862919D02*
X-28135586Y-2862919D01*
X-28421300Y-2862919D02*
X-28421300Y-1862919D01*
X-28421300Y-1862919D02*
X-28326062Y-2005776D01*
X-28326062Y-2005776D02*
X-28230824Y-2101014D01*
X-28230824Y-2101014D02*
X-28135586Y-2148633D01*
X-29603233Y-4567819D02*
X-29269900Y-4091628D01*
X-29031805Y-4567819D02*
X-29031805Y-3567819D01*
X-29031805Y-3567819D02*
X-29412757Y-3567819D01*
X-29412757Y-3567819D02*
X-29507995Y-3615438D01*
X-29507995Y-3615438D02*
X-29555614Y-3663057D01*
X-29555614Y-3663057D02*
X-29603233Y-3758295D01*
X-29603233Y-3758295D02*
X-29603233Y-3901152D01*
X-29603233Y-3901152D02*
X-29555614Y-3996390D01*
X-29555614Y-3996390D02*
X-29507995Y-4044009D01*
X-29507995Y-4044009D02*
X-29412757Y-4091628D01*
X-29412757Y-4091628D02*
X-29031805Y-4091628D01*
X-30507995Y-3567819D02*
X-30031805Y-3567819D01*
X-30031805Y-3567819D02*
X-29984186Y-4044009D01*
X-29984186Y-4044009D02*
X-30031805Y-3996390D01*
X-30031805Y-3996390D02*
X-30127043Y-3948771D01*
X-30127043Y-3948771D02*
X-30365138Y-3948771D01*
X-30365138Y-3948771D02*
X-30460376Y-3996390D01*
X-30460376Y-3996390D02*
X-30507995Y-4044009D01*
X-30507995Y-4044009D02*
X-30555614Y-4139247D01*
X-30555614Y-4139247D02*
X-30555614Y-4377342D01*
X-30555614Y-4377342D02*
X-30507995Y-4472580D01*
X-30507995Y-4472580D02*
X-30460376Y-4520200D01*
X-30460376Y-4520200D02*
X-30365138Y-4567819D01*
X-30365138Y-4567819D02*
X-30127043Y-4567819D01*
X-30127043Y-4567819D02*
X-30031805Y-4520200D01*
X-30031805Y-4520200D02*
X-29984186Y-4472580D01*
X28613219Y-3591305D02*
X27613219Y-3591305D01*
X27613219Y-3591305D02*
X27613219Y-3829400D01*
X27613219Y-3829400D02*
X27660838Y-3972257D01*
X27660838Y-3972257D02*
X27756076Y-4067495D01*
X27756076Y-4067495D02*
X27851314Y-4115114D01*
X27851314Y-4115114D02*
X28041790Y-4162733D01*
X28041790Y-4162733D02*
X28184647Y-4162733D01*
X28184647Y-4162733D02*
X28375123Y-4115114D01*
X28375123Y-4115114D02*
X28470361Y-4067495D01*
X28470361Y-4067495D02*
X28565600Y-3972257D01*
X28565600Y-3972257D02*
X28613219Y-3829400D01*
X28613219Y-3829400D02*
X28613219Y-3591305D01*
X27946552Y-5019876D02*
X28613219Y-5019876D01*
X27565600Y-4781781D02*
X28279885Y-4543686D01*
X28279885Y-4543686D02*
X28279885Y-5162733D01*
X18834119Y1218504D02*
X19643642Y1218504D01*
X19643642Y1218504D02*
X19738880Y1170885D01*
X19738880Y1170885D02*
X19786500Y1123266D01*
X19786500Y1123266D02*
X19834119Y1028028D01*
X19834119Y1028028D02*
X19834119Y837552D01*
X19834119Y837552D02*
X19786500Y742314D01*
X19786500Y742314D02*
X19738880Y694695D01*
X19738880Y694695D02*
X19643642Y647076D01*
X19643642Y647076D02*
X18834119Y647076D01*
X18929357Y218504D02*
X18881738Y170885D01*
X18881738Y170885D02*
X18834119Y75647D01*
X18834119Y75647D02*
X18834119Y-162447D01*
X18834119Y-162447D02*
X18881738Y-257685D01*
X18881738Y-257685D02*
X18929357Y-305304D01*
X18929357Y-305304D02*
X19024595Y-352923D01*
X19024595Y-352923D02*
X19119833Y-352923D01*
X19119833Y-352923D02*
X19262690Y-305304D01*
X19262690Y-305304D02*
X19834119Y266123D01*
X19834119Y266123D02*
X19834119Y-352923D01*
%TO.C,ANT1*%
X-11644000Y-659500D02*
X-11144000Y-159500D01*
X-11644000Y-1459500D02*
X-11644000Y-659500D01*
X-11144000Y-159500D02*
X-7544000Y-159500D01*
X-11144000Y-1959500D02*
X-11644000Y-1459500D01*
X-7544000Y-159500D02*
X-7044000Y-659500D01*
X-7544000Y-1959500D02*
X-11144000Y-1959500D01*
X-7044000Y-659500D02*
X-7044000Y-1459500D01*
X-7044000Y-1459500D02*
X-7544000Y-1959500D01*
%TO.C,R4*%
D12*
X-25407642Y-5782400D02*
X-25882158Y-5782400D01*
X-25407642Y-6827400D02*
X-25882158Y-6827400D01*
%TO.C,Y1*%
X-15672700Y4236200D02*
X-19092700Y4236200D01*
X-15672700Y116200D02*
X-15672700Y4236200D01*
%TO.C,D1*%
X-23461700Y-2800100D02*
X-23461700Y-5085100D01*
X-21991700Y-2800100D02*
X-23461700Y-2800100D01*
X-21991700Y-5085100D02*
X-21991700Y-2800100D01*
%TO.C,R8*%
X-4267042Y-703000D02*
X-4741558Y-703000D01*
X-4267042Y-1748000D02*
X-4741558Y-1748000D01*
%TO.C,C10*%
X-13756500Y-1377980D02*
X-13756500Y-1096820D01*
X-12736500Y-1377980D02*
X-12736500Y-1096820D01*
%TO.C,C6*%
X-15819000Y-2139880D02*
X-15819000Y-1858720D01*
X-14799000Y-2139880D02*
X-14799000Y-1858720D01*
%TO.C,C1*%
X15980120Y1824200D02*
X16261280Y1824200D01*
X15980120Y804200D02*
X16261280Y804200D01*
%TO.C,R6*%
X-32073700Y-1220758D02*
X-32073700Y-746242D01*
X-31028700Y-1220758D02*
X-31028700Y-746242D01*
%TO.C,C7*%
X-13644920Y5887600D02*
X-13926080Y5887600D01*
X-13644920Y4867600D02*
X-13926080Y4867600D01*
%TO.C,D6*%
X28127100Y-554000D02*
X28127100Y2106000D01*
X29827100Y2106000D02*
X28127100Y2106000D01*
X29827100Y-554000D02*
X29827100Y2106000D01*
%TO.C,D5*%
X25800700Y1546000D02*
X25800700Y-1114000D01*
X25800700Y-1114000D02*
X27500700Y-1114000D01*
X27500700Y1546000D02*
X27500700Y-1114000D01*
%TO.C,D3*%
X26832000Y-3279400D02*
X26832000Y-5939400D01*
X26832000Y-5939400D02*
X28532000Y-5939400D01*
X28532000Y-3279400D02*
X28532000Y-5939400D01*
%TO.C,C12*%
X-10059420Y6510000D02*
X-10340580Y6510000D01*
X-10059420Y5490000D02*
X-10340580Y5490000D01*
%TO.C,R5*%
X-30007158Y-5020500D02*
X-29532642Y-5020500D01*
X-30007158Y-6065500D02*
X-29532642Y-6065500D01*
%TO.C,D4*%
X29158400Y-5379400D02*
X29158400Y-2719400D01*
X30858400Y-2719400D02*
X29158400Y-2719400D01*
X30858400Y-5379400D02*
X30858400Y-2719400D01*
%TD*%
M02*
