%TF.GenerationSoftware,KiCad,Pcbnew,10.0.3*%
%TF.CreationDate,2026-05-30T05:49:55+05:30*%
%TF.ProjectId,sentinel_ring_v5_fpc,73656e74-696e-4656-9c5f-72696e675f76,rev?*%
%TF.SameCoordinates,Original*%
%TF.FileFunction,Soldermask,Top*%
%TF.FilePolarity,Negative*%
%FSLAX46Y46*%
G04 Gerber Fmt 4.6, Leading zero omitted, Abs format (unit mm)*
G04 Created by KiCad (PCBNEW 10.0.3) date 2026-05-30 05:49:55*
%MOMM*%
%LPD*%
G01*
G04 APERTURE LIST*
G04 APERTURE END LIST*
G36*
X-23272896Y-5847027D02*
G01*
X-23199901Y-5895801D01*
X-23151127Y-5968796D01*
X-23134000Y-6054900D01*
X-23134000Y-6554900D01*
X-23151127Y-6641004D01*
X-23199901Y-6713999D01*
X-23272896Y-6762773D01*
X-23359000Y-6779900D01*
X-23809000Y-6779900D01*
X-23895104Y-6762773D01*
X-23968099Y-6713999D01*
X-24016873Y-6641004D01*
X-24034000Y-6554900D01*
X-24034000Y-6054900D01*
X-24016873Y-5968796D01*
X-23968099Y-5895801D01*
X-23895104Y-5847027D01*
X-23809000Y-5829900D01*
X-23359000Y-5829900D01*
X-23272896Y-5847027D01*
G37*
G36*
X-21722896Y-5847027D02*
G01*
X-21649901Y-5895801D01*
X-21601127Y-5968796D01*
X-21584000Y-6054900D01*
X-21584000Y-6554900D01*
X-21601127Y-6641004D01*
X-21649901Y-6713999D01*
X-21722896Y-6762773D01*
X-21809000Y-6779900D01*
X-22259000Y-6779900D01*
X-22345104Y-6762773D01*
X-22418099Y-6713999D01*
X-22466873Y-6641004D01*
X-22484000Y-6554900D01*
X-22484000Y-6054900D01*
X-22466873Y-5968796D01*
X-22418099Y-5895801D01*
X-22345104Y-5847027D01*
X-22259000Y-5829900D01*
X-21809000Y-5829900D01*
X-21722896Y-5847027D01*
G37*
G36*
X25985100Y-5956100D02*
G01*
X23985100Y-5956100D01*
X23985100Y-4456100D01*
X25985100Y-4456100D01*
X25985100Y-5956100D01*
G37*
G36*
X31985100Y-5956100D02*
G01*
X29985100Y-5956100D01*
X29985100Y-4456100D01*
X31985100Y-4456100D01*
X31985100Y-5956100D01*
G37*
G36*
X-30888438Y-4651751D02*
G01*
X-30817470Y-4699170D01*
X-30770051Y-4770138D01*
X-30753400Y-4853850D01*
X-30753400Y-5291350D01*
X-30770051Y-5375062D01*
X-30817470Y-5446030D01*
X-30888438Y-5493449D01*
X-30972150Y-5510100D01*
X-31484650Y-5510100D01*
X-31568362Y-5493449D01*
X-31639330Y-5446030D01*
X-31686749Y-5375062D01*
X-31703400Y-5291350D01*
X-31703400Y-4853850D01*
X-31686749Y-4770138D01*
X-31639330Y-4699170D01*
X-31568362Y-4651751D01*
X-31484650Y-4635100D01*
X-30972150Y-4635100D01*
X-30888438Y-4651751D01*
G37*
G36*
X-26058796Y-4627227D02*
G01*
X-25985801Y-4676001D01*
X-25937027Y-4748996D01*
X-25919900Y-4835100D01*
X-25919900Y-5285100D01*
X-25937027Y-5371204D01*
X-25985801Y-5444199D01*
X-26058796Y-5492973D01*
X-26144900Y-5510100D01*
X-26644900Y-5510100D01*
X-26731004Y-5492973D01*
X-26803999Y-5444199D01*
X-26852773Y-5371204D01*
X-26869900Y-5285100D01*
X-26869900Y-4835100D01*
X-26852773Y-4748996D01*
X-26803999Y-4676001D01*
X-26731004Y-4627227D01*
X-26644900Y-4610100D01*
X-26144900Y-4610100D01*
X-26058796Y-4627227D01*
G37*
G36*
X-11148463Y-4240224D02*
G01*
X-11083579Y-4283579D01*
X-11040224Y-4348463D01*
X-11025000Y-4425000D01*
X-11025000Y-4825000D01*
X-11040224Y-4901537D01*
X-11083579Y-4966421D01*
X-11148463Y-5009776D01*
X-11225000Y-5025000D01*
X-11775000Y-5025000D01*
X-11851537Y-5009776D01*
X-11916421Y-4966421D01*
X-11959776Y-4901537D01*
X-11975000Y-4825000D01*
X-11975000Y-4425000D01*
X-11959776Y-4348463D01*
X-11916421Y-4283579D01*
X-11851537Y-4240224D01*
X-11775000Y-4225000D01*
X-11225000Y-4225000D01*
X-11148463Y-4240224D01*
G37*
G36*
X-21725996Y-3815227D02*
G01*
X-21653001Y-3864001D01*
X-21604227Y-3936996D01*
X-21587100Y-4023100D01*
X-21587100Y-4523100D01*
X-21604227Y-4609204D01*
X-21653001Y-4682199D01*
X-21725996Y-4730973D01*
X-21812100Y-4748100D01*
X-22262100Y-4748100D01*
X-22348204Y-4730973D01*
X-22421199Y-4682199D01*
X-22469973Y-4609204D01*
X-22487100Y-4523100D01*
X-22487100Y-4023100D01*
X-22469973Y-3936996D01*
X-22421199Y-3864001D01*
X-22348204Y-3815227D01*
X-22262100Y-3798100D01*
X-21812100Y-3798100D01*
X-21725996Y-3815227D01*
G37*
G36*
X-20175996Y-3815227D02*
G01*
X-20103001Y-3864001D01*
X-20054227Y-3936996D01*
X-20037100Y-4023100D01*
X-20037100Y-4523100D01*
X-20054227Y-4609204D01*
X-20103001Y-4682199D01*
X-20175996Y-4730973D01*
X-20262100Y-4748100D01*
X-20712100Y-4748100D01*
X-20798204Y-4730973D01*
X-20871199Y-4682199D01*
X-20919973Y-4609204D01*
X-20937100Y-4523100D01*
X-20937100Y-4023100D01*
X-20919973Y-3936996D01*
X-20871199Y-3864001D01*
X-20798204Y-3815227D01*
X-20712100Y-3798100D01*
X-20262100Y-3798100D01*
X-20175996Y-3815227D01*
G37*
G36*
X-24774720Y-3914894D02*
G01*
X-24736094Y-3953520D01*
X-24715190Y-4003987D01*
X-24715190Y-4058613D01*
X-24736094Y-4109080D01*
X-24774720Y-4147706D01*
X-24825187Y-4168610D01*
X-24879813Y-4168610D01*
X-24930280Y-4147706D01*
X-24968906Y-4109080D01*
X-24989810Y-4058613D01*
X-24989810Y-4003987D01*
X-24968906Y-3953520D01*
X-24930280Y-3914894D01*
X-24879813Y-3893990D01*
X-24825187Y-3893990D01*
X-24774720Y-3914894D01*
G37*
G36*
X-24284720Y-3914894D02*
G01*
X-24246094Y-3953520D01*
X-24225190Y-4003987D01*
X-24225190Y-4058613D01*
X-24246094Y-4109080D01*
X-24284720Y-4147706D01*
X-24335187Y-4168610D01*
X-24389813Y-4168610D01*
X-24440280Y-4147706D01*
X-24478906Y-4109080D01*
X-24499810Y-4058613D01*
X-24499810Y-4003987D01*
X-24478906Y-3953520D01*
X-24440280Y-3914894D01*
X-24389813Y-3893990D01*
X-24335187Y-3893990D01*
X-24284720Y-3914894D01*
G37*
G36*
X-23794720Y-3914894D02*
G01*
X-23756094Y-3953520D01*
X-23735190Y-4003987D01*
X-23735190Y-4058613D01*
X-23756094Y-4109080D01*
X-23794720Y-4147706D01*
X-23845187Y-4168610D01*
X-23899813Y-4168610D01*
X-23950280Y-4147706D01*
X-23988906Y-4109080D01*
X-24009810Y-4058613D01*
X-24009810Y-4003987D01*
X-23988906Y-3953520D01*
X-23950280Y-3914894D01*
X-23899813Y-3893990D01*
X-23845187Y-3893990D01*
X-23794720Y-3914894D01*
G37*
G36*
X-23304720Y-3914894D02*
G01*
X-23266094Y-3953520D01*
X-23245190Y-4003987D01*
X-23245190Y-4058613D01*
X-23266094Y-4109080D01*
X-23304720Y-4147706D01*
X-23355187Y-4168610D01*
X-23409813Y-4168610D01*
X-23460280Y-4147706D01*
X-23498906Y-4109080D01*
X-23519810Y-4058613D01*
X-23519810Y-4003987D01*
X-23498906Y-3953520D01*
X-23460280Y-3914894D01*
X-23409813Y-3893990D01*
X-23355187Y-3893990D01*
X-23304720Y-3914894D01*
G37*
G36*
X-26058796Y-3077227D02*
G01*
X-25985801Y-3126001D01*
X-25937027Y-3198996D01*
X-25919900Y-3285100D01*
X-25919900Y-3735100D01*
X-25937027Y-3821204D01*
X-25985801Y-3894199D01*
X-26058796Y-3942973D01*
X-26144900Y-3960100D01*
X-26644900Y-3960100D01*
X-26731004Y-3942973D01*
X-26803999Y-3894199D01*
X-26852773Y-3821204D01*
X-26869900Y-3735100D01*
X-26869900Y-3285100D01*
X-26852773Y-3198996D01*
X-26803999Y-3126001D01*
X-26731004Y-3077227D01*
X-26644900Y-3060100D01*
X-26144900Y-3060100D01*
X-26058796Y-3077227D01*
G37*
G36*
X-30888438Y-3076751D02*
G01*
X-30817470Y-3124170D01*
X-30770051Y-3195138D01*
X-30753400Y-3278850D01*
X-30753400Y-3716350D01*
X-30770051Y-3800062D01*
X-30817470Y-3871030D01*
X-30888438Y-3918449D01*
X-30972150Y-3935100D01*
X-31484650Y-3935100D01*
X-31568362Y-3918449D01*
X-31639330Y-3871030D01*
X-31686749Y-3800062D01*
X-31703400Y-3716350D01*
X-31703400Y-3278850D01*
X-31686749Y-3195138D01*
X-31639330Y-3124170D01*
X-31568362Y-3076751D01*
X-31484650Y-3060100D01*
X-30972150Y-3060100D01*
X-30888438Y-3076751D01*
G37*
G36*
X-24774720Y-3424894D02*
G01*
X-24736094Y-3463520D01*
X-24715190Y-3513987D01*
X-24715190Y-3568613D01*
X-24736094Y-3619080D01*
X-24774720Y-3657706D01*
X-24825187Y-3678610D01*
X-24879813Y-3678610D01*
X-24930280Y-3657706D01*
X-24968906Y-3619080D01*
X-24989810Y-3568613D01*
X-24989810Y-3513987D01*
X-24968906Y-3463520D01*
X-24930280Y-3424894D01*
X-24879813Y-3403990D01*
X-24825187Y-3403990D01*
X-24774720Y-3424894D01*
G37*
G36*
X-24284720Y-3424894D02*
G01*
X-24246094Y-3463520D01*
X-24225190Y-3513987D01*
X-24225190Y-3568613D01*
X-24246094Y-3619080D01*
X-24284720Y-3657706D01*
X-24335187Y-3678610D01*
X-24389813Y-3678610D01*
X-24440280Y-3657706D01*
X-24478906Y-3619080D01*
X-24499810Y-3568613D01*
X-24499810Y-3513987D01*
X-24478906Y-3463520D01*
X-24440280Y-3424894D01*
X-24389813Y-3403990D01*
X-24335187Y-3403990D01*
X-24284720Y-3424894D01*
G37*
G36*
X-23794720Y-3424894D02*
G01*
X-23756094Y-3463520D01*
X-23735190Y-3513987D01*
X-23735190Y-3568613D01*
X-23756094Y-3619080D01*
X-23794720Y-3657706D01*
X-23845187Y-3678610D01*
X-23899813Y-3678610D01*
X-23950280Y-3657706D01*
X-23988906Y-3619080D01*
X-24009810Y-3568613D01*
X-24009810Y-3513987D01*
X-23988906Y-3463520D01*
X-23950280Y-3424894D01*
X-23899813Y-3403990D01*
X-23845187Y-3403990D01*
X-23794720Y-3424894D01*
G37*
G36*
X-23304720Y-3424894D02*
G01*
X-23266094Y-3463520D01*
X-23245190Y-3513987D01*
X-23245190Y-3568613D01*
X-23266094Y-3619080D01*
X-23304720Y-3657706D01*
X-23355187Y-3678610D01*
X-23409813Y-3678610D01*
X-23460280Y-3657706D01*
X-23498906Y-3619080D01*
X-23519810Y-3568613D01*
X-23519810Y-3513987D01*
X-23498906Y-3463520D01*
X-23460280Y-3424894D01*
X-23409813Y-3403990D01*
X-23355187Y-3403990D01*
X-23304720Y-3424894D01*
G37*
G36*
X-11698463Y-2340224D02*
G01*
X-11633579Y-2383579D01*
X-11590224Y-2448463D01*
X-11575000Y-2525000D01*
X-11575000Y-2529927D01*
X-11570550Y-2552301D01*
X-11542892Y-2575000D01*
X-11225000Y-2575000D01*
X-11148463Y-2590224D01*
X-11083579Y-2633579D01*
X-11040224Y-2698463D01*
X-11025000Y-2775000D01*
X-11025000Y-3175000D01*
X-11040224Y-3251537D01*
X-11083579Y-3316421D01*
X-11148463Y-3359776D01*
X-11225000Y-3375000D01*
X-11775000Y-3375000D01*
X-11851537Y-3359776D01*
X-11916421Y-3316421D01*
X-11936851Y-3285845D01*
X-11957142Y-3275000D01*
X-12175000Y-3275000D01*
X-12251537Y-3259776D01*
X-12316421Y-3216421D01*
X-12359776Y-3151537D01*
X-12375000Y-3075000D01*
X-12375000Y-2525000D01*
X-12359776Y-2448463D01*
X-12316421Y-2383579D01*
X-12251537Y-2340224D01*
X-12175000Y-2325000D01*
X-11775000Y-2325000D01*
X-11698463Y-2340224D01*
G37*
G36*
X-13348463Y-2340224D02*
G01*
X-13283579Y-2383579D01*
X-13240224Y-2448463D01*
X-13225000Y-2525000D01*
X-13225000Y-3075000D01*
X-13240224Y-3151537D01*
X-13283579Y-3216421D01*
X-13348463Y-3259776D01*
X-13425000Y-3275000D01*
X-13825000Y-3275000D01*
X-13901537Y-3259776D01*
X-13966421Y-3216421D01*
X-14009776Y-3151537D01*
X-14025000Y-3075000D01*
X-14025000Y-2525000D01*
X-14009776Y-2448463D01*
X-13966421Y-2383579D01*
X-13901537Y-2340224D01*
X-13825000Y-2325000D01*
X-13425000Y-2325000D01*
X-13348463Y-2340224D01*
G37*
G36*
X-24774720Y-2934894D02*
G01*
X-24736094Y-2973520D01*
X-24715190Y-3023987D01*
X-24715190Y-3078613D01*
X-24736094Y-3129080D01*
X-24774720Y-3167706D01*
X-24825187Y-3188610D01*
X-24879813Y-3188610D01*
X-24930280Y-3167706D01*
X-24968906Y-3129080D01*
X-24989810Y-3078613D01*
X-24989810Y-3023987D01*
X-24968906Y-2973520D01*
X-24930280Y-2934894D01*
X-24879813Y-2913990D01*
X-24825187Y-2913990D01*
X-24774720Y-2934894D01*
G37*
G36*
X-24284720Y-2934894D02*
G01*
X-24246094Y-2973520D01*
X-24225190Y-3023987D01*
X-24225190Y-3078613D01*
X-24246094Y-3129080D01*
X-24284720Y-3167706D01*
X-24335187Y-3188610D01*
X-24389813Y-3188610D01*
X-24440280Y-3167706D01*
X-24478906Y-3129080D01*
X-24499810Y-3078613D01*
X-24499810Y-3023987D01*
X-24478906Y-2973520D01*
X-24440280Y-2934894D01*
X-24389813Y-2913990D01*
X-24335187Y-2913990D01*
X-24284720Y-2934894D01*
G37*
G36*
X-23794720Y-2934894D02*
G01*
X-23756094Y-2973520D01*
X-23735190Y-3023987D01*
X-23735190Y-3078613D01*
X-23756094Y-3129080D01*
X-23794720Y-3167706D01*
X-23845187Y-3188610D01*
X-23899813Y-3188610D01*
X-23950280Y-3167706D01*
X-23988906Y-3129080D01*
X-24009810Y-3078613D01*
X-24009810Y-3023987D01*
X-23988906Y-2973520D01*
X-23950280Y-2934894D01*
X-23899813Y-2913990D01*
X-23845187Y-2913990D01*
X-23794720Y-2934894D01*
G37*
G36*
X-23304720Y-2934894D02*
G01*
X-23266094Y-2973520D01*
X-23245190Y-3023987D01*
X-23245190Y-3078613D01*
X-23266094Y-3129080D01*
X-23304720Y-3167706D01*
X-23355187Y-3188610D01*
X-23409813Y-3188610D01*
X-23460280Y-3167706D01*
X-23498906Y-3129080D01*
X-23519810Y-3078613D01*
X-23519810Y-3023987D01*
X-23498906Y-2973520D01*
X-23460280Y-2934894D01*
X-23409813Y-2913990D01*
X-23355187Y-2913990D01*
X-23304720Y-2934894D01*
G37*
G36*
X-16542654Y-2667666D02*
G01*
X-16508166Y-2702154D01*
X-16489502Y-2747214D01*
X-16489502Y-2795986D01*
X-16508166Y-2841046D01*
X-16542654Y-2875534D01*
X-16587714Y-2894198D01*
X-16636486Y-2894198D01*
X-16681546Y-2875534D01*
X-16716034Y-2841046D01*
X-16734698Y-2795986D01*
X-16734698Y-2747214D01*
X-16716034Y-2702154D01*
X-16681546Y-2667666D01*
X-16636486Y-2649002D01*
X-16587714Y-2649002D01*
X-16542654Y-2667666D01*
G37*
G36*
X-16042654Y-2667666D02*
G01*
X-16008166Y-2702154D01*
X-15989502Y-2747214D01*
X-15989502Y-2795986D01*
X-16008166Y-2841046D01*
X-16042654Y-2875534D01*
X-16087714Y-2894198D01*
X-16136486Y-2894198D01*
X-16181546Y-2875534D01*
X-16216034Y-2841046D01*
X-16234698Y-2795986D01*
X-16234698Y-2747214D01*
X-16216034Y-2702154D01*
X-16181546Y-2667666D01*
X-16136486Y-2649002D01*
X-16087714Y-2649002D01*
X-16042654Y-2667666D01*
G37*
G36*
X-15542654Y-2667666D02*
G01*
X-15508166Y-2702154D01*
X-15489502Y-2747214D01*
X-15489502Y-2795986D01*
X-15508166Y-2841046D01*
X-15542654Y-2875534D01*
X-15587714Y-2894198D01*
X-15636486Y-2894198D01*
X-15681546Y-2875534D01*
X-15716034Y-2841046D01*
X-15734698Y-2795986D01*
X-15734698Y-2747214D01*
X-15716034Y-2702154D01*
X-15681546Y-2667666D01*
X-15636486Y-2649002D01*
X-15587714Y-2649002D01*
X-15542654Y-2667666D01*
G37*
G36*
X-21675996Y-1833527D02*
G01*
X-21603001Y-1882301D01*
X-21554227Y-1955296D01*
X-21537100Y-2041400D01*
X-21537100Y-2491400D01*
X-21554227Y-2577504D01*
X-21603001Y-2650499D01*
X-21675996Y-2699273D01*
X-21762100Y-2716400D01*
X-22262100Y-2716400D01*
X-22348204Y-2699273D01*
X-22421199Y-2650499D01*
X-22469973Y-2577504D01*
X-22487100Y-2491400D01*
X-22487100Y-2041400D01*
X-22469973Y-1955296D01*
X-22421199Y-1882301D01*
X-22348204Y-1833527D01*
X-22262100Y-1816400D01*
X-21762100Y-1816400D01*
X-21675996Y-1833527D01*
G37*
G36*
X-19405696Y-1783527D02*
G01*
X-19332701Y-1832301D01*
X-19283927Y-1905296D01*
X-19266800Y-1991400D01*
X-19266800Y-2491400D01*
X-19283927Y-2577504D01*
X-19332701Y-2650499D01*
X-19405696Y-2699273D01*
X-19491800Y-2716400D01*
X-19941800Y-2716400D01*
X-20027904Y-2699273D01*
X-20100899Y-2650499D01*
X-20149673Y-2577504D01*
X-20166800Y-2491400D01*
X-20166800Y-1991400D01*
X-20149673Y-1905296D01*
X-20100899Y-1832301D01*
X-20027904Y-1783527D01*
X-19941800Y-1766400D01*
X-19491800Y-1766400D01*
X-19405696Y-1783527D01*
G37*
G36*
X-17855696Y-1783527D02*
G01*
X-17782701Y-1832301D01*
X-17733927Y-1905296D01*
X-17716800Y-1991400D01*
X-17716800Y-2491400D01*
X-17733927Y-2577504D01*
X-17782701Y-2650499D01*
X-17855696Y-2699273D01*
X-17941800Y-2716400D01*
X-18391800Y-2716400D01*
X-18477904Y-2699273D01*
X-18550899Y-2650499D01*
X-18599673Y-2577504D01*
X-18616800Y-2491400D01*
X-18616800Y-1991400D01*
X-18599673Y-1905296D01*
X-18550899Y-1832301D01*
X-18477904Y-1783527D01*
X-18391800Y-1766400D01*
X-17941800Y-1766400D01*
X-17855696Y-1783527D01*
G37*
G36*
X-24774720Y-2444894D02*
G01*
X-24736094Y-2483520D01*
X-24715190Y-2533987D01*
X-24715190Y-2588613D01*
X-24736094Y-2639080D01*
X-24774720Y-2677706D01*
X-24825187Y-2698610D01*
X-24879813Y-2698610D01*
X-24930280Y-2677706D01*
X-24968906Y-2639080D01*
X-24989810Y-2588613D01*
X-24989810Y-2533987D01*
X-24968906Y-2483520D01*
X-24930280Y-2444894D01*
X-24879813Y-2423990D01*
X-24825187Y-2423990D01*
X-24774720Y-2444894D01*
G37*
G36*
X-24284720Y-2444894D02*
G01*
X-24246094Y-2483520D01*
X-24225190Y-2533987D01*
X-24225190Y-2588613D01*
X-24246094Y-2639080D01*
X-24284720Y-2677706D01*
X-24335187Y-2698610D01*
X-24389813Y-2698610D01*
X-24440280Y-2677706D01*
X-24478906Y-2639080D01*
X-24499810Y-2588613D01*
X-24499810Y-2533987D01*
X-24478906Y-2483520D01*
X-24440280Y-2444894D01*
X-24389813Y-2423990D01*
X-24335187Y-2423990D01*
X-24284720Y-2444894D01*
G37*
G36*
X-23794720Y-2444894D02*
G01*
X-23756094Y-2483520D01*
X-23735190Y-2533987D01*
X-23735190Y-2588613D01*
X-23756094Y-2639080D01*
X-23794720Y-2677706D01*
X-23845187Y-2698610D01*
X-23899813Y-2698610D01*
X-23950280Y-2677706D01*
X-23988906Y-2639080D01*
X-24009810Y-2588613D01*
X-24009810Y-2533987D01*
X-23988906Y-2483520D01*
X-23950280Y-2444894D01*
X-23899813Y-2423990D01*
X-23845187Y-2423990D01*
X-23794720Y-2444894D01*
G37*
G36*
X-23304720Y-2444894D02*
G01*
X-23266094Y-2483520D01*
X-23245190Y-2533987D01*
X-23245190Y-2588613D01*
X-23266094Y-2639080D01*
X-23304720Y-2677706D01*
X-23355187Y-2698610D01*
X-23409813Y-2698610D01*
X-23460280Y-2677706D01*
X-23498906Y-2639080D01*
X-23519810Y-2588613D01*
X-23519810Y-2533987D01*
X-23498906Y-2483520D01*
X-23460280Y-2444894D01*
X-23409813Y-2423990D01*
X-23355187Y-2423990D01*
X-23304720Y-2444894D01*
G37*
G36*
X19313200Y-2654400D02*
G01*
X18313200Y-2654400D01*
X18313200Y-1154400D01*
X19313200Y-1154400D01*
X19313200Y-2654400D01*
G37*
G36*
X-29406538Y-1096151D02*
G01*
X-29335570Y-1143570D01*
X-29288151Y-1214538D01*
X-29271500Y-1298250D01*
X-29271500Y-1735750D01*
X-29288151Y-1819462D01*
X-29335570Y-1890430D01*
X-29406538Y-1937849D01*
X-29490250Y-1954500D01*
X-30002750Y-1954500D01*
X-30086462Y-1937849D01*
X-30157430Y-1890430D01*
X-30204849Y-1819462D01*
X-30221500Y-1735750D01*
X-30221500Y-1298250D01*
X-30204849Y-1214538D01*
X-30157430Y-1143570D01*
X-30086462Y-1096151D01*
X-30002750Y-1079500D01*
X-29490250Y-1079500D01*
X-29406538Y-1096151D01*
G37*
G36*
X17269137Y-1169724D02*
G01*
X17334021Y-1213079D01*
X17377376Y-1277963D01*
X17392600Y-1354500D01*
X17392600Y-1754500D01*
X17377376Y-1831037D01*
X17334021Y-1895921D01*
X17269137Y-1939276D01*
X17192600Y-1954500D01*
X16642600Y-1954500D01*
X16566063Y-1939276D01*
X16501179Y-1895921D01*
X16457824Y-1831037D01*
X16442600Y-1754500D01*
X16442600Y-1354500D01*
X16457824Y-1277963D01*
X16501179Y-1213079D01*
X16566063Y-1169724D01*
X16642600Y-1154500D01*
X17192600Y-1154500D01*
X17269137Y-1169724D01*
G37*
G36*
X-16542654Y-1667666D02*
G01*
X-16508166Y-1702154D01*
X-16489502Y-1747214D01*
X-16489502Y-1795986D01*
X-16508166Y-1841046D01*
X-16542654Y-1875534D01*
X-16587714Y-1894198D01*
X-16636486Y-1894198D01*
X-16681546Y-1875534D01*
X-16716034Y-1841046D01*
X-16734698Y-1795986D01*
X-16734698Y-1747214D01*
X-16716034Y-1702154D01*
X-16681546Y-1667666D01*
X-16636486Y-1649002D01*
X-16587714Y-1649002D01*
X-16542654Y-1667666D01*
G37*
G36*
X-16042654Y-1667666D02*
G01*
X-16008166Y-1702154D01*
X-15989502Y-1747214D01*
X-15989502Y-1795986D01*
X-16008166Y-1841046D01*
X-16042654Y-1875534D01*
X-16087714Y-1894198D01*
X-16136486Y-1894198D01*
X-16181546Y-1875534D01*
X-16216034Y-1841046D01*
X-16234698Y-1795986D01*
X-16234698Y-1747214D01*
X-16216034Y-1702154D01*
X-16181546Y-1667666D01*
X-16136486Y-1649002D01*
X-16087714Y-1649002D01*
X-16042654Y-1667666D01*
G37*
G36*
X-15542654Y-1667666D02*
G01*
X-15508166Y-1702154D01*
X-15489502Y-1747214D01*
X-15489502Y-1795986D01*
X-15508166Y-1841046D01*
X-15542654Y-1875534D01*
X-15587714Y-1894198D01*
X-15636486Y-1894198D01*
X-15681546Y-1875534D01*
X-15716034Y-1841046D01*
X-15734698Y-1795986D01*
X-15734698Y-1747214D01*
X-15716034Y-1702154D01*
X-15681546Y-1667666D01*
X-15636486Y-1649002D01*
X-15587714Y-1649002D01*
X-15542654Y-1667666D01*
G37*
G36*
X-10410801Y-389642D02*
G01*
X-10284022Y-442155D01*
X-10169925Y-518393D01*
X-10072893Y-615425D01*
X-9996655Y-729522D01*
X-9944142Y-856301D01*
X-9917371Y-990888D01*
X-9917371Y-1128112D01*
X-9944142Y-1262699D01*
X-9996655Y-1389478D01*
X-10072893Y-1503575D01*
X-10169925Y-1600607D01*
X-10284022Y-1676845D01*
X-10410801Y-1729358D01*
X-10545388Y-1756129D01*
X-10682612Y-1756129D01*
X-10817199Y-1729358D01*
X-10943978Y-1676845D01*
X-11058075Y-1600607D01*
X-11155107Y-1503575D01*
X-11231345Y-1389478D01*
X-11283858Y-1262699D01*
X-11310629Y-1128112D01*
X-11310629Y-990888D01*
X-11283858Y-856301D01*
X-11231345Y-729522D01*
X-11155107Y-615425D01*
X-11058075Y-518393D01*
X-10943978Y-442155D01*
X-10817199Y-389642D01*
X-10682612Y-362871D01*
X-10545388Y-362871D01*
X-10410801Y-389642D01*
G37*
G36*
X-7870801Y-389642D02*
G01*
X-7744022Y-442155D01*
X-7629925Y-518393D01*
X-7532893Y-615425D01*
X-7456655Y-729522D01*
X-7404142Y-856301D01*
X-7377371Y-990888D01*
X-7377371Y-1128112D01*
X-7404142Y-1262699D01*
X-7456655Y-1389478D01*
X-7532893Y-1503575D01*
X-7629925Y-1600607D01*
X-7744022Y-1676845D01*
X-7870801Y-1729358D01*
X-8005388Y-1756129D01*
X-8142612Y-1756129D01*
X-8277199Y-1729358D01*
X-8403978Y-1676845D01*
X-8518075Y-1600607D01*
X-8615107Y-1503575D01*
X-8691345Y-1389478D01*
X-8743858Y-1262699D01*
X-8770629Y-1128112D01*
X-8770629Y-990888D01*
X-8743858Y-856301D01*
X-8691345Y-729522D01*
X-8615107Y-615425D01*
X-8518075Y-518393D01*
X-8403978Y-442155D01*
X-8277199Y-389642D01*
X-8142612Y-362871D01*
X-8005388Y-362871D01*
X-7870801Y-389642D01*
G37*
G36*
X-14076163Y-765724D02*
G01*
X-14011279Y-809079D01*
X-13967924Y-873963D01*
X-13952700Y-950500D01*
X-13952700Y-1500500D01*
X-13967924Y-1577037D01*
X-14011279Y-1641921D01*
X-14076163Y-1685276D01*
X-14152700Y-1700500D01*
X-14552700Y-1700500D01*
X-14629237Y-1685276D01*
X-14694121Y-1641921D01*
X-14737476Y-1577037D01*
X-14752700Y-1500500D01*
X-14752700Y-950500D01*
X-14737476Y-873963D01*
X-14694121Y-809079D01*
X-14629237Y-765724D01*
X-14552700Y-750500D01*
X-14152700Y-750500D01*
X-14076163Y-765724D01*
G37*
G36*
X-12426163Y-765724D02*
G01*
X-12361279Y-809079D01*
X-12317924Y-873963D01*
X-12302700Y-950500D01*
X-12302700Y-1500500D01*
X-12317924Y-1577037D01*
X-12361279Y-1641921D01*
X-12426163Y-1685276D01*
X-12502700Y-1700500D01*
X-12902700Y-1700500D01*
X-12979237Y-1685276D01*
X-13044121Y-1641921D01*
X-13087476Y-1577037D01*
X-13102700Y-1500500D01*
X-13102700Y-950500D01*
X-13087476Y-873963D01*
X-13044121Y-809079D01*
X-12979237Y-765724D01*
X-12902700Y-750500D01*
X-12502700Y-750500D01*
X-12426163Y-765724D01*
G37*
G36*
X-23738496Y-563727D02*
G01*
X-23665501Y-612501D01*
X-23616727Y-685496D01*
X-23599600Y-771600D01*
X-23599600Y-1221600D01*
X-23616727Y-1307704D01*
X-23665501Y-1380699D01*
X-23738496Y-1429473D01*
X-23824600Y-1446600D01*
X-24324600Y-1446600D01*
X-24410704Y-1429473D01*
X-24483699Y-1380699D01*
X-24532473Y-1307704D01*
X-24549600Y-1221600D01*
X-24549600Y-771600D01*
X-24532473Y-685496D01*
X-24483699Y-612501D01*
X-24410704Y-563727D01*
X-24324600Y-546600D01*
X-23824600Y-546600D01*
X-23738496Y-563727D01*
G37*
G36*
X-21675996Y-283527D02*
G01*
X-21603001Y-332301D01*
X-21554227Y-405296D01*
X-21537100Y-491400D01*
X-21537100Y-941400D01*
X-21554227Y-1027504D01*
X-21603001Y-1100499D01*
X-21675996Y-1149273D01*
X-21762100Y-1166400D01*
X-22262100Y-1166400D01*
X-22348204Y-1149273D01*
X-22421199Y-1100499D01*
X-22469973Y-1027504D01*
X-22487100Y-941400D01*
X-22487100Y-491400D01*
X-22469973Y-405296D01*
X-22421199Y-332301D01*
X-22348204Y-283527D01*
X-22262100Y-266400D01*
X-21762100Y-266400D01*
X-21675996Y-283527D01*
G37*
G36*
X-16504363Y100076D02*
G01*
X-16439479Y56721D01*
X-16396124Y-8163D01*
X-16380900Y-84700D01*
X-16380900Y-484700D01*
X-16396124Y-561237D01*
X-16439479Y-626121D01*
X-16504363Y-669476D01*
X-16580900Y-684700D01*
X-17130900Y-684700D01*
X-17207437Y-669476D01*
X-17272321Y-626121D01*
X-17315676Y-561237D01*
X-17330900Y-484700D01*
X-17330900Y-84700D01*
X-17315676Y-8163D01*
X-17272321Y56721D01*
X-17207437Y100076D01*
X-17130900Y115300D01*
X-16580900Y115300D01*
X-16504363Y100076D01*
G37*
G36*
X-29406538Y478849D02*
G01*
X-29335570Y431430D01*
X-29288151Y360462D01*
X-29271500Y276750D01*
X-29271500Y-160750D01*
X-29288151Y-244462D01*
X-29335570Y-315430D01*
X-29406538Y-362849D01*
X-29490250Y-379500D01*
X-30002750Y-379500D01*
X-30086462Y-362849D01*
X-30157430Y-315430D01*
X-30204849Y-244462D01*
X-30221500Y-160750D01*
X-30221500Y276750D01*
X-30204849Y360462D01*
X-30157430Y431430D01*
X-30086462Y478849D01*
X-30002750Y495500D01*
X-29490250Y495500D01*
X-29406538Y478849D01*
G37*
G36*
X23857200Y-366800D02*
G01*
X22357200Y-366800D01*
X22357200Y633200D01*
X23857200Y633200D01*
X23857200Y-366800D01*
G37*
G36*
X27857200Y-366800D02*
G01*
X26357200Y-366800D01*
X26357200Y633200D01*
X27857200Y633200D01*
X27857200Y-366800D01*
G37*
G36*
X17269137Y480276D02*
G01*
X17334021Y436921D01*
X17377376Y372037D01*
X17392600Y295500D01*
X17392600Y-104500D01*
X17377376Y-181037D01*
X17334021Y-245921D01*
X17269137Y-289276D01*
X17192600Y-304500D01*
X16642600Y-304500D01*
X16566063Y-289276D01*
X16501179Y-245921D01*
X16457824Y-181037D01*
X16442600Y-104500D01*
X16442600Y295500D01*
X16457824Y372037D01*
X16501179Y436921D01*
X16566063Y480276D01*
X16642600Y495500D01*
X17192600Y495500D01*
X17269137Y480276D01*
G37*
G36*
X-23738496Y986273D02*
G01*
X-23665501Y937499D01*
X-23616727Y864504D01*
X-23599600Y778400D01*
X-23599600Y328400D01*
X-23616727Y242296D01*
X-23665501Y169301D01*
X-23738496Y120527D01*
X-23824600Y103400D01*
X-23829523Y103400D01*
X-24319677Y103400D01*
X-24324600Y103400D01*
X-24410704Y120527D01*
X-24483699Y169301D01*
X-24532473Y242296D01*
X-24549600Y328400D01*
X-24549600Y778400D01*
X-24532473Y864504D01*
X-24483699Y937499D01*
X-24410704Y986273D01*
X-24324600Y1003400D01*
X-23824600Y1003400D01*
X-23738496Y986273D01*
G37*
G36*
X-13816600Y434500D02*
G01*
X-13821524Y434500D01*
X-14061677Y434500D01*
X-14066600Y434500D01*
X-14066600Y1109500D01*
X-13816600Y1109500D01*
X-13816600Y434500D01*
G37*
G36*
X-13316600Y434500D02*
G01*
X-13321524Y434500D01*
X-13561677Y434500D01*
X-13566600Y434500D01*
X-13566600Y1109500D01*
X-13316600Y1109500D01*
X-13316600Y434500D01*
G37*
G36*
X-12816600Y434500D02*
G01*
X-12821524Y434500D01*
X-13061677Y434500D01*
X-13066600Y434500D01*
X-13066600Y1109500D01*
X-12816600Y1109500D01*
X-12816600Y434500D01*
G37*
G36*
X-12316600Y434500D02*
G01*
X-12321524Y434500D01*
X-12561677Y434500D01*
X-12566600Y434500D01*
X-12566600Y1109500D01*
X-12316600Y1109500D01*
X-12316600Y434500D01*
G37*
G36*
X-10963896Y1757873D02*
G01*
X-10890901Y1709099D01*
X-10842127Y1636104D01*
X-10825000Y1550000D01*
X-10825000Y1050000D01*
X-10842127Y963896D01*
X-10890901Y890901D01*
X-10963896Y842127D01*
X-11050000Y825000D01*
X-11054923Y825000D01*
X-11495077Y825000D01*
X-11500000Y825000D01*
X-11586104Y842127D01*
X-11659099Y890901D01*
X-11707873Y963896D01*
X-11725000Y1050000D01*
X-11725000Y1550000D01*
X-11707873Y1636104D01*
X-11659099Y1709099D01*
X-11586104Y1757873D01*
X-11500000Y1775000D01*
X-11050000Y1775000D01*
X-10963896Y1757873D01*
G37*
G36*
X-9413896Y1757873D02*
G01*
X-9340901Y1709099D01*
X-9292127Y1636104D01*
X-9275000Y1550000D01*
X-9275000Y1050000D01*
X-9292127Y963896D01*
X-9340901Y890901D01*
X-9413896Y842127D01*
X-9500000Y825000D01*
X-9504923Y825000D01*
X-9945077Y825000D01*
X-9950000Y825000D01*
X-10036104Y842127D01*
X-10109099Y890901D01*
X-10157873Y963896D01*
X-10175000Y1050000D01*
X-10175000Y1550000D01*
X-10157873Y1636104D01*
X-10109099Y1709099D01*
X-10036104Y1757873D01*
X-9950000Y1775000D01*
X-9500000Y1775000D01*
X-9413896Y1757873D01*
G37*
G36*
X-16504363Y1750076D02*
G01*
X-16439479Y1706721D01*
X-16396124Y1641837D01*
X-16380900Y1565300D01*
X-16380900Y1165300D01*
X-16396124Y1088763D01*
X-16439479Y1023879D01*
X-16504363Y980524D01*
X-16580900Y965300D01*
X-16585823Y965300D01*
X-17125977Y965300D01*
X-17130900Y965300D01*
X-17207437Y980524D01*
X-17272321Y1023879D01*
X-17315676Y1088763D01*
X-17330900Y1165300D01*
X-17330900Y1565300D01*
X-17315676Y1641837D01*
X-17272321Y1706721D01*
X-17207437Y1750076D01*
X-17130900Y1765300D01*
X-16580900Y1765300D01*
X-16504363Y1750076D01*
G37*
G36*
X23857200Y1185600D02*
G01*
X23852275Y1185600D01*
X22362122Y1185600D01*
X22357200Y1185600D01*
X22357200Y2185600D01*
X23857200Y2185600D01*
X23857200Y1185600D01*
G37*
G36*
X27857200Y1185600D02*
G01*
X27852275Y1185600D01*
X26362122Y1185600D01*
X26357200Y1185600D01*
X26357200Y2185600D01*
X27857200Y2185600D01*
X27857200Y1185600D01*
G37*
G36*
X19313200Y1345600D02*
G01*
X19308275Y1345600D01*
X18318122Y1345600D01*
X18313200Y1345600D01*
X18313200Y2845600D01*
X19313200Y2845600D01*
X19313200Y1345600D01*
G37*
G36*
X-13866600Y1409500D02*
G01*
X-13871524Y1409500D01*
X-14536677Y1409500D01*
X-14541600Y1409500D01*
X-14541600Y1659500D01*
X-13866600Y1659500D01*
X-13866600Y1409500D01*
G37*
G36*
X-11841600Y1409500D02*
G01*
X-11846524Y1409500D01*
X-12511677Y1409500D01*
X-12516600Y1409500D01*
X-12516600Y1659500D01*
X-11841600Y1659500D01*
X-11841600Y1409500D01*
G37*
G36*
X-13866600Y1909500D02*
G01*
X-13871524Y1909500D01*
X-14536677Y1909500D01*
X-14541600Y1909500D01*
X-14541600Y2159500D01*
X-13866600Y2159500D01*
X-13866600Y1909500D01*
G37*
G36*
X-11841600Y1909500D02*
G01*
X-11846524Y1909500D01*
X-12511677Y1909500D01*
X-12516600Y1909500D01*
X-12516600Y2159500D01*
X-11841600Y2159500D01*
X-11841600Y1909500D01*
G37*
G36*
X-13866600Y2409500D02*
G01*
X-13871524Y2409500D01*
X-14536677Y2409500D01*
X-14541600Y2409500D01*
X-14541600Y2659500D01*
X-13866600Y2659500D01*
X-13866600Y2409500D01*
G37*
G36*
X-11841600Y2409500D02*
G01*
X-11846524Y2409500D01*
X-12511677Y2409500D01*
X-12516600Y2409500D01*
X-12516600Y2659500D01*
X-11841600Y2659500D01*
X-11841600Y2409500D01*
G37*
G36*
X-13816600Y2959500D02*
G01*
X-13821524Y2959500D01*
X-14061677Y2959500D01*
X-14066600Y2959500D01*
X-14066600Y3634500D01*
X-13816600Y3634500D01*
X-13816600Y2959500D01*
G37*
G36*
X-13316600Y2959500D02*
G01*
X-13321524Y2959500D01*
X-13561677Y2959500D01*
X-13566600Y2959500D01*
X-13566600Y3634500D01*
X-13316600Y3634500D01*
X-13316600Y2959500D01*
G37*
G36*
X-12816600Y2959500D02*
G01*
X-12821524Y2959500D01*
X-13061677Y2959500D01*
X-13066600Y2959500D01*
X-13066600Y3634500D01*
X-12816600Y3634500D01*
X-12816600Y2959500D01*
G37*
G36*
X-12316600Y2959500D02*
G01*
X-12321524Y2959500D01*
X-12561677Y2959500D01*
X-12566600Y2959500D01*
X-12566600Y3634500D01*
X-12316600Y3634500D01*
X-12316600Y2959500D01*
G37*
M02*
