%TF.GenerationSoftware,KiCad,Pcbnew,10.0.3*%
%TF.CreationDate,2026-05-30T05:49:55+05:30*%
%TF.ProjectId,sentinel_ring_v5_fpc,73656e74-696e-4656-9c5f-72696e675f76,rev?*%
%TF.SameCoordinates,Original*%
%TF.FileFunction,Paste,Bot*%
%TF.FilePolarity,Positive*%
%FSLAX46Y46*%
G04 Gerber Fmt 4.6, Leading zero omitted, Abs format (unit mm)*
G04 Created by KiCad (PCBNEW 10.0.3) date 2026-05-30 05:49:55*
%MOMM*%
%LPD*%
G01*
G04 APERTURE LIST*
G04 Aperture macros list*
%AMRoundRect*
0 Rectangle with rounded corners*
0 $1 Rounding radius*
0 $2 $3 $4 $5 $6 $7 $8 $9 X,Y pos of 4 corners*
0 Add a 4 corners polygon primitive as box body*
4,1,4,$2,$3,$4,$5,$6,$7,$8,$9,$2,$3,0*
0 Add four circle primitives for the rounded corners*
1,1,$1+$1,$2,$3*
1,1,$1+$1,$4,$5*
1,1,$1+$1,$6,$7*
1,1,$1+$1,$8,$9*
0 Add four rect primitives between the rounded corners*
20,1,$1+$1,$2,$3,$4,$5,0*
20,1,$1+$1,$4,$5,$6,$7,0*
20,1,$1+$1,$6,$7,$8,$9,0*
20,1,$1+$1,$8,$9,$2,$3,0*%
G04 Aperture macros list end*
%ADD10RoundRect,0.200000X-0.200000X-0.275000X0.200000X-0.275000X0.200000X0.275000X-0.200000X0.275000X0*%
%ADD11RoundRect,0.250000X-0.350000X0.450000X-0.350000X-0.450000X0.350000X-0.450000X0.350000X0.450000X0*%
%ADD12RoundRect,0.218750X-0.256250X0.218750X-0.256250X-0.218750X0.256250X-0.218750X0.256250X0.218750X0*%
%ADD13RoundRect,0.225000X-0.250000X0.225000X-0.250000X-0.225000X0.250000X-0.225000X0.250000X0.225000X0*%
%ADD14RoundRect,0.225000X0.225000X0.250000X-0.225000X0.250000X-0.225000X-0.250000X0.225000X-0.250000X0*%
%ADD15RoundRect,0.200000X-0.275000X0.200000X-0.275000X-0.200000X0.275000X-0.200000X0.275000X0.200000X0*%
%ADD16RoundRect,0.225000X-0.225000X-0.250000X0.225000X-0.250000X0.225000X0.250000X-0.225000X0.250000X0*%
%ADD17RoundRect,0.112500X-0.112500X0.187500X-0.112500X-0.187500X0.112500X-0.187500X0.112500X0.187500X0*%
%ADD18RoundRect,0.112500X0.112500X-0.187500X0.112500X0.187500X-0.112500X0.187500X-0.112500X-0.187500X0*%
%ADD19C,0.250000*%
%ADD20R,1.500000X1.000000*%
%ADD21RoundRect,0.200000X0.200000X0.275000X-0.200000X0.275000X-0.200000X-0.275000X0.200000X-0.275000X0*%
%ADD22R,0.300000X0.200000*%
%ADD23R,0.200000X0.300000*%
G04 APERTURE END LIST*
D10*
%TO.C,R4*%
X-26469900Y-6304900D03*
X-24819900Y-6304900D03*
%TD*%
D11*
%TO.C,Y1*%
X-16532700Y3276200D03*
X-16532700Y1076200D03*
X-18232700Y1076200D03*
X-18232700Y3276200D03*
%TD*%
D12*
%TO.C,D1*%
X-22726700Y-3497600D03*
X-22726700Y-5072600D03*
%TD*%
D10*
%TO.C,R8*%
X-5329300Y-1225500D03*
X-3679300Y-1225500D03*
%TD*%
D13*
%TO.C,C10*%
X-13246500Y-462400D03*
X-13246500Y-2012400D03*
%TD*%
%TO.C,C6*%
X-15309000Y-1224300D03*
X-15309000Y-2774300D03*
%TD*%
D14*
%TO.C,C1*%
X16895700Y1314200D03*
X15345700Y1314200D03*
%TD*%
D15*
%TO.C,R6*%
X-31551200Y-158500D03*
X-31551200Y-1808500D03*
%TD*%
D16*
%TO.C,C7*%
X-14560500Y5377600D03*
X-13010500Y5377600D03*
%TD*%
D17*
%TO.C,D6*%
X28977100Y1546000D03*
X28977100Y-554000D03*
%TD*%
D18*
%TO.C,D5*%
X26650700Y-554000D03*
X26650700Y1546000D03*
%TD*%
D19*
%TO.C,U1*%
X-14412500Y1038400D03*
X-13612500Y1038400D03*
X-12012500Y1038400D03*
X-14412500Y3838400D03*
X-12412500Y1038400D03*
X-13212500Y1038400D03*
X-14012500Y1038400D03*
X-11612500Y1438400D03*
X-14812500Y1838400D03*
X-14812500Y2238400D03*
X-11212500Y2638400D03*
X-11212500Y3038400D03*
X-11612500Y3438400D03*
X-12012500Y3838400D03*
X-12412500Y3838400D03*
X-13212500Y3838400D03*
X-12812500Y3438400D03*
X-13212500Y3038400D03*
X-11612500Y1838400D03*
X-14012500Y3838400D03*
X-14012500Y1438400D03*
X-14412500Y3438400D03*
%TD*%
D18*
%TO.C,D3*%
X27682000Y-5379400D03*
X27682000Y-3279400D03*
%TD*%
D16*
%TO.C,C12*%
X-10975000Y6000000D03*
X-9425000Y6000000D03*
%TD*%
D20*
%TO.C,B1*%
X-25921300Y-3678100D03*
X-29921300Y-3678100D03*
%TD*%
D21*
%TO.C,R5*%
X-28944900Y-5543000D03*
X-30594900Y-5543000D03*
%TD*%
D17*
%TO.C,D4*%
X30008400Y-3279400D03*
X30008400Y-5379400D03*
%TD*%
D22*
%TO.C,U2*%
X18449300Y1656600D03*
X18449300Y1256600D03*
X18449300Y856600D03*
X18449300Y456600D03*
X18449300Y56600D03*
X18449300Y-343400D03*
X18449300Y-743400D03*
D23*
X19449300Y-1743400D03*
X19849300Y-1743400D03*
X20249300Y-1743400D03*
X20649300Y-1743400D03*
X21049300Y-1743400D03*
X21449300Y-1743400D03*
X21849300Y-1743400D03*
D22*
X22849300Y-743400D03*
X22849300Y-343400D03*
X22849300Y56600D03*
X22849300Y456600D03*
X22849300Y856600D03*
X22849300Y1256600D03*
X22849300Y1656600D03*
D23*
X21849300Y2656600D03*
X21449300Y2656600D03*
X21049300Y2656600D03*
X20649300Y2656600D03*
X20249300Y2656600D03*
X19849300Y2656600D03*
X19449300Y2656600D03*
%TD*%
M02*
